<?xml version="1.0" encoding="UTF-8"?>
<svg width="736px" height="334px" viewBox="0 0 736 334" version="1.1" xmlns="http://www.w3.org/2000/svg" xmlns:xlink="http://www.w3.org/1999/xlink">
    <!-- Generator: Sketch 43.2 (39069) - http://www.bohemiancoding.com/sketch -->
    <title>Graph 1</title>
    <desc>Created with Sketch.</desc>
    <defs>
        <rect id="path-1" x="0" y="0" width="676" height="274" rx="5"></rect>
        <filter x="-6.7%" y="-16.4%" width="113.3%" height="132.8%" filterUnits="objectBoundingBox" id="filter-3">
            <feOffset dx="0" dy="0" in="SourceAlpha" result="shadowOffsetOuter1"></feOffset>
            <feGaussianBlur stdDeviation="15" in="shadowOffsetOuter1" result="shadowBlurOuter1"></feGaussianBlur>
            <feColorMatrix values="0 0 0 0 0   0 0 0 0 0   0 0 0 0 0  0 0 0 0.2 0" type="matrix" in="shadowBlurOuter1"></feColorMatrix>
        </filter>
        <path d="M0,15 C0,6.71572875 6.71115413,0 14.9924668,0 L76,0 L76,30 L14.9924668,30 C6.71235604,30 0,23.2860927 0,15 L0,15 Z" id="path-4"></path>
    </defs>
    <g id="Manufacturer-Scratch-1" stroke="none" stroke-width="1" fill="none" fill-rule="evenodd">
        <g id="Graph-1" transform="translate(30.000000, 30.000000)">
            <g id="Line-Copy-5-+-Line-Copy-6-+-Line-Copy-7-+-Line-Copy-8-+-Line-Copy-9-+-Stroke-3-Copy-+-Stroke-3-Copy-Mask">
                <mask id="mask-2" fill="white">
                    <use xlink:href="#path-1"></use>
                </mask>
                <g id="Mask">
                    <use fill="black" fill-opacity="1" filter="url(#filter-3)" xlink:href="#path-1"></use>
                    <use fill="#343640" fill-rule="evenodd" xlink:href="#path-1"></use>
                </g>
                <path d="M40,88.498 L57.2280296,74.998 L67.98672,46.5 L84.5388484,39 L90.3317348,39 L101.090425,63.749 L110.962995,82.498 L118.470188,94.498 L131.711228,94.498 L144.125187,77.998 L163.987299,85.498 L173.918356,117.492 L198.746273,155.995 L210.279077,155.995 L222.746555,155.995 L232.677612,146.995 L241.781586,155.995 L246.746838,177.492 L253.36791,193.493 L264.126601,177.492 L279.850543,157.495 L294.747404,125.996 L312.954249,125.996 L324.540573,140.996 L338.5,117.492 L363.437165,103.498 L379.161659,116.247 L396.54087,137.996 L408.911239,130.496 L429.644575,103.498 L456.12776,104.997 L467.714084,91.498 L490.886733,77.998 L508.227321,86.998 C508.227321,86.998 522.33517,103.498 524.818072,103.498 C527.300974,103.498 543.852551,101.998 543.852551,101.998 L557.921777,117.492 L569.508102,137.996 L589.370214,116.247 L616.680482,95.998 L637,92.998" id="Stroke-3-Copy" stroke="#009BEF" stroke-width="2" stroke-linecap="round" stroke-linejoin="round" mask="url(#mask-2)"></path>
                <path d="M40,127.849517 L57.2280296,122.301334 L67.98672,110.589324 L84.5388484,107.507 L90.3317348,127.507 L101.090425,149.678259 L110.962995,143.383658 L118.470188,140.315377 L131.711228,130.315377 L144.125187,114.534263 L163.987299,117.616588 L173.918356,130.765371 L198.746273,146.589201 L210.279077,146.589201 L222.746555,146.589201 L232.677612,142.890412 L241.781586,146.589201 L246.746838,155.423964 L253.36791,162 L264.126601,155.423964 L279.850543,147.205666 L294.747404,134.260316 L312.954249,134.260316 L324.540573,140.424964 L338.5,130.765371 L363.437165,125.014165 L379.161659,130.253705 L396.54087,139.192034 L408.911239,136.10971 L429.644575,125.014165 L456.12776,125.630219 L467.714084,120.082447 L490.886733,114.534263 L508.227321,118.233052 C508.227321,118.233052 522.33517,125.014165 524.818072,125.014165 C527.300974,125.014165 543.852551,124.397701 543.852551,124.397701 L557.921777,130.765371 L569.508102,118.192034 L589.370214,130.253705 L616.680482,121.931841 L637,120.698912" id="Stroke-3-Copy-2" stroke="#009BEF" stroke-width="2" opacity="0.300000012" stroke-linecap="round" stroke-linejoin="round" mask="url(#mask-2)" transform="translate(338.500000, 134.753500) scale(1, -1) translate(-338.500000, -134.753500) "></path>
            </g>
            <path d="M43.3027344,233.048828 C43.3027344,229.708968 43.7568314,226.899425 44.6650391,224.620117 C45.5732467,222.340809 46.8622963,220.650396 48.5322266,219.548828 C50.2021568,218.44726 52.214832,217.896484 54.5703125,217.896484 C55.6718805,217.896484 56.6796829,218.031249 57.59375,218.300781 L57.59375,219.847656 C56.738277,219.531248 55.7070373,219.373047 54.5,219.373047 C51.6054543,219.373047 49.3525471,220.416005 47.7412109,222.501953 C46.1298748,224.587901 45.2246104,227.623027 45.0253906,231.607422 L45.2539062,231.607422 C46.1445357,230.458979 47.1640568,229.5918 48.3125,229.005859 C49.4609432,228.419919 50.6738217,228.126953 51.9511719,228.126953 C54.3535276,228.126953 56.2314385,228.812493 57.5849609,230.183594 C58.9384833,231.554694 59.6152344,233.447254 59.6152344,235.861328 C59.6152344,238.486341 58.9033274,240.55761 57.4794922,242.075195 C56.0556569,243.592781 54.1367308,244.351562 51.7226562,244.351562 C49.1210807,244.351562 47.0673903,243.358408 45.5615234,241.37207 C44.0556565,239.385732 43.3027344,236.611346 43.3027344,233.048828 Z M51.7226562,242.804688 C53.6445409,242.804688 55.1386665,242.201178 56.2050781,240.994141 C57.2714897,239.787103 57.8046875,238.064464 57.8046875,235.826172 C57.8046875,233.857412 57.277349,232.322271 56.2226562,231.220703 C55.1679635,230.119135 53.732431,229.568359 51.9160156,229.568359 C50.7206971,229.568359 49.6103567,229.832029 48.5849609,230.359375 C47.5595652,230.886721 46.7421905,231.58691 46.1328125,232.459961 C45.5234345,233.333012 45.21875,234.226558 45.21875,235.140625 C45.21875,236.441413 45.5087862,237.692377 46.0888672,238.893555 C46.6689482,240.094733 47.4540966,241.046871 48.4443359,241.75 C49.4345753,242.453129 50.5273378,242.804688 51.7226562,242.804688 Z M67.4199219,244 L78.0019531,219.988281 L63.4648438,219.988281 L63.4648438,218.300781 L80.09375,218.300781 L80.09375,219.583984 L69.4765625,244 L67.4199219,244 Z" id="67" fill="#FFFFFF"></path>
            <path d="M95.7753906,219.511719 C94.9706991,219.511719 94.3378929,219.796872 93.8769531,220.367188 C93.4160133,220.937503 93.1855469,221.724604 93.1855469,222.728516 C93.1855469,223.779302 93.4072243,224.574216 93.8505859,225.113281 C94.2939475,225.652346 94.9355427,225.921875 95.7753906,225.921875 C96.1386737,225.921875 96.4902327,225.885743 96.8300781,225.813477 C97.1699236,225.741211 97.5234357,225.648438 97.890625,225.535156 L97.890625,226.736328 C97.2187466,226.990236 96.4570355,227.117188 95.6054688,227.117188 C94.3515562,227.117188 93.3886752,226.737308 92.7167969,225.977539 C92.0449185,225.21777 91.7089844,224.130866 91.7089844,222.716797 C91.7089844,221.826167 91.8720687,221.046878 92.1982422,220.378906 C92.5244157,219.710934 92.9960907,219.199221 93.6132812,218.84375 C94.2304718,218.488279 94.955074,218.310547 95.7871094,218.310547 C96.6621138,218.310547 97.4706994,218.494139 98.2128906,218.861328 L97.7089844,220.027344 C97.4199204,219.890624 97.1142594,219.770508 96.7919922,219.666992 C96.469725,219.563476 96.1308612,219.511719 95.7753906,219.511719 Z M108.050781,227 L107.195312,224.621094 L103.919922,224.621094 L103.082031,227 L101.605469,227 L104.810547,218.398438 L106.333984,218.398438 L109.539062,227 L108.050781,227 Z M106.826172,223.414062 L106.023438,221.082031 C105.964843,220.92578 105.88379,220.679689 105.780273,220.34375 C105.676757,220.007811 105.605469,219.76172 105.566406,219.605469 C105.460937,220.08594 105.306642,220.611325 105.103516,221.181641 L104.330078,223.414062 L106.826172,223.414062 Z M115.070312,222.417969 L116.042969,222.417969 C116.695316,222.417969 117.167967,222.296876 117.460938,222.054688 C117.753908,221.812499 117.900391,221.453127 117.900391,220.976562 C117.900391,220.492185 117.742189,220.144532 117.425781,219.933594 C117.109373,219.722655 116.632816,219.617188 115.996094,219.617188 L115.070312,219.617188 L115.070312,222.417969 Z M115.070312,223.578125 L115.070312,227 L113.669922,227 L113.669922,218.433594 L116.089844,218.433594 C117.195318,218.433594 118.013669,218.640623 118.544922,219.054688 C119.076175,219.468752 119.341797,220.093746 119.341797,220.929688 C119.341797,221.996099 118.787115,222.755857 117.677734,223.208984 L120.097656,227 L118.503906,227 L116.453125,223.578125 L115.070312,223.578125 Z M129.279297,224.673828 C129.279297,225.435551 129.003909,226.033201 128.453125,226.466797 C127.902341,226.900393 127.142583,227.117188 126.173828,227.117188 C125.205073,227.117188 124.412112,226.966798 123.794922,226.666016 L123.794922,225.341797 C124.185549,225.525392 124.600584,225.669921 125.040039,225.775391 C125.479494,225.88086 125.88867,225.933594 126.267578,225.933594 C126.822268,225.933594 127.231444,225.828126 127.495117,225.617188 C127.75879,225.406249 127.890625,225.123049 127.890625,224.767578 C127.890625,224.447264 127.769532,224.175782 127.527344,223.953125 C127.285155,223.730468 126.78516,223.466798 126.027344,223.162109 C125.24609,222.845702 124.695314,222.484377 124.375,222.078125 C124.054686,221.671873 123.894531,221.183597 123.894531,220.613281 C123.894531,219.898434 124.148435,219.33594 124.65625,218.925781 C125.164065,218.515623 125.845699,218.310547 126.701172,218.310547 C127.521488,218.310547 128.337887,218.490233 129.150391,218.849609 L128.705078,219.992188 C127.943356,219.671873 127.263675,219.511719 126.666016,219.511719 C126.212888,219.511719 125.869142,219.610351 125.634766,219.807617 C125.400389,220.004884 125.283203,220.265623 125.283203,220.589844 C125.283203,220.812501 125.330078,221.002929 125.423828,221.161133 C125.517579,221.319337 125.671874,221.468749 125.886719,221.609375 C126.101564,221.750001 126.488278,221.935546 127.046875,222.166016 C127.675784,222.427736 128.136717,222.671874 128.429688,222.898438 C128.722658,223.125001 128.937499,223.380858 129.074219,223.666016 C129.210938,223.951173 129.279297,224.287107 129.279297,224.673828 Z M97.8027344,238.023438 C97.8027344,238.917973 97.5097686,239.603513 96.9238281,240.080078 C96.3378877,240.556643 95.5039117,240.794922 94.421875,240.794922 L93.53125,240.794922 L93.53125,244 L92.1308594,244 L92.1308594,235.433594 L94.5976562,235.433594 C95.6679741,235.433594 96.4697239,235.652342 97.0029297,236.089844 C97.5361355,236.527346 97.8027344,237.171871 97.8027344,238.023438 Z M93.53125,239.617188 L94.2753906,239.617188 C94.9941442,239.617188 95.5214827,239.492189 95.8574219,239.242188 C96.1933611,238.992186 96.3613281,238.601565 96.3613281,238.070312 C96.3613281,237.578123 96.210939,237.210939 95.9101562,236.96875 C95.6093735,236.726561 95.1406282,236.605469 94.5039062,236.605469 L93.53125,236.605469 L93.53125,239.617188 Z M103.914062,239.417969 L104.886719,239.417969 C105.539066,239.417969 106.011717,239.296876 106.304688,239.054688 C106.597658,238.812499 106.744141,238.453127 106.744141,237.976562 C106.744141,237.492185 106.585939,237.144532 106.269531,236.933594 C105.953123,236.722655 105.476566,236.617188 104.839844,236.617188 L103.914062,236.617188 L103.914062,239.417969 Z M103.914062,240.578125 L103.914062,244 L102.513672,244 L102.513672,235.433594 L104.933594,235.433594 C106.039068,235.433594 106.857419,235.640623 107.388672,236.054688 C107.919925,236.468752 108.185547,237.093746 108.185547,237.929688 C108.185547,238.996099 107.630865,239.755857 106.521484,240.208984 L108.941406,244 L107.347656,244 L105.296875,240.578125 L103.914062,240.578125 Z M120.789062,239.705078 C120.789062,241.099616 120.440433,242.18359 119.743164,242.957031 C119.045895,243.730473 118.0586,244.117188 116.78125,244.117188 C115.488275,244.117188 114.495121,243.733402 113.801758,242.96582 C113.108395,242.198238 112.761719,241.107429 112.761719,239.693359 C112.761719,238.27929 113.110348,237.193363 113.807617,236.435547 C114.504886,235.677731 115.499994,235.298828 116.792969,235.298828 C118.066413,235.298828 119.050778,235.68359 119.746094,236.453125 C120.44141,237.22266 120.789062,238.306634 120.789062,239.705078 Z M114.25,239.705078 C114.25,240.759771 114.462888,241.559568 114.888672,242.104492 C115.314455,242.649417 115.945308,242.921875 116.78125,242.921875 C117.613285,242.921875 118.241209,242.652346 118.665039,242.113281 C119.088869,241.574216 119.300781,240.77149 119.300781,239.705078 C119.300781,238.654292 119.090822,237.857425 118.670898,237.314453 C118.250974,236.771482 117.625004,236.5 116.792969,236.5 C115.953121,236.5 115.319338,236.771482 114.891602,237.314453 C114.463865,237.857425 114.25,238.654292 114.25,239.705078 Z M132.595703,239.634766 C132.595703,241.048835 132.203129,242.129879 131.417969,242.87793 C130.632809,243.62598 129.501961,244 128.025391,244 L125.628906,244 L125.628906,235.433594 L128.277344,235.433594 C129.640632,235.433594 130.701168,235.800778 131.458984,236.535156 C132.216801,237.269535 132.595703,238.302728 132.595703,239.634766 Z M131.119141,239.681641 C131.119141,237.630849 130.160166,236.605469 128.242188,236.605469 L127.029297,236.605469 L127.029297,242.822266 L128.025391,242.822266 C130.087901,242.822266 131.119141,241.775401 131.119141,239.681641 Z M144.150391,235.433594 L144.150391,240.976562 C144.150391,241.609378 144.01465,242.163084 143.743164,242.637695 C143.471678,243.112307 143.079104,243.477538 142.56543,243.733398 C142.051755,243.989259 141.437504,244.117188 140.722656,244.117188 C139.660151,244.117188 138.833987,243.83594 138.244141,243.273438 C137.654294,242.710935 137.359375,241.937505 137.359375,240.953125 L137.359375,235.433594 L138.765625,235.433594 L138.765625,240.853516 C138.765625,241.56055 138.929686,242.08203 139.257812,242.417969 C139.585939,242.753908 140.08984,242.921875 140.769531,242.921875 C142.08985,242.921875 142.75,242.228523 142.75,240.841797 L142.75,235.433594 L144.150391,235.433594 Z M152.986328,236.511719 C152.181637,236.511719 151.54883,236.796872 151.087891,237.367188 C150.626951,237.937503 150.396484,238.724604 150.396484,239.728516 C150.396484,240.779302 150.618162,241.574216 151.061523,242.113281 C151.504885,242.652346 152.14648,242.921875 152.986328,242.921875 C153.349611,242.921875 153.70117,242.885743 154.041016,242.813477 C154.380861,242.741211 154.734373,242.648438 155.101562,242.535156 L155.101562,243.736328 C154.429684,243.990236 153.667973,244.117188 152.816406,244.117188 C151.562494,244.117188 150.599613,243.737308 149.927734,242.977539 C149.255856,242.21777 148.919922,241.130866 148.919922,239.716797 C148.919922,238.826167 149.083006,238.046878 149.40918,237.378906 C149.735353,236.710934 150.207028,236.199221 150.824219,235.84375 C151.441409,235.488279 152.166011,235.310547 152.998047,235.310547 C153.873051,235.310547 154.681637,235.494139 155.423828,235.861328 L154.919922,237.027344 C154.630858,236.890624 154.325197,236.770508 154.00293,236.666992 C153.680662,236.563476 153.341799,236.511719 152.986328,236.511719 Z M164.792969,244 L159.947266,244 L159.947266,235.433594 L164.792969,235.433594 L164.792969,236.617188 L161.347656,236.617188 L161.347656,238.949219 L164.576172,238.949219 L164.576172,240.121094 L161.347656,240.121094 L161.347656,242.810547 L164.792969,242.810547 L164.792969,244 Z M176.611328,239.634766 C176.611328,241.048835 176.218754,242.129879 175.433594,242.87793 C174.648434,243.62598 173.517586,244 172.041016,244 L169.644531,244 L169.644531,235.433594 L172.292969,235.433594 C173.656257,235.433594 174.716793,235.800778 175.474609,236.535156 C176.232426,237.269535 176.611328,238.302728 176.611328,239.634766 Z M175.134766,239.681641 C175.134766,237.630849 174.175791,236.605469 172.257812,236.605469 L171.044922,236.605469 L171.044922,242.822266 L172.041016,242.822266 C174.103526,242.822266 175.134766,241.775401 175.134766,239.681641 Z" id="Cars-produced" fill="#FFFFFF" opacity="0.5"></path>
            <g id="Group-2-Copy-5" transform="translate(489.000000, 217.000000)">
                <g id="Mask">
                    <use fill="#484B59" fill-rule="evenodd" xlink:href="#path-4"></use>
                    <path stroke="#5D6173" stroke-width="1" d="M75.5,0.5 L75.5,29.5 L14.9924668,29.5 C6.98791644,29.5 0.5,23.0093681 0.5,15 C0.5,6.99139338 6.98777405,0.5 14.9924668,0.5 L75.5,0.5 Z"></path>
                </g>
                <path d="M27.5898438,20 L26.1894531,20 L26.1894531,12.6347656 L23.6699219,12.6347656 L23.6699219,11.4335938 L30.109375,11.4335938 L30.109375,12.6347656 L27.5898438,12.6347656 L27.5898438,20 Z M34.421875,20 L34.421875,11.4335938 L35.8222656,11.4335938 L35.8222656,20 L34.421875,20 Z M44.7871094,20 L42.3027344,12.8457031 L42.2558594,12.8457031 C42.322266,13.9082084 42.3554688,14.9042922 42.3554688,15.8339844 L42.3554688,20 L41.0839844,20 L41.0839844,11.4335938 L43.0585938,11.4335938 L45.4375,18.2480469 L45.4726562,18.2480469 L47.921875,11.4335938 L49.9023438,11.4335938 L49.9023438,20 L48.5546875,20 L48.5546875,15.7636719 C48.5546875,15.3378885 48.5654296,14.7832065 48.5869141,14.0996094 C48.6083985,13.4160122 48.626953,13.0019538 48.6425781,12.8574219 L48.5957031,12.8574219 L46.0234375,20 L44.7871094,20 Z M60.0039062,20 L55.1582031,20 L55.1582031,11.4335938 L60.0039062,11.4335938 L60.0039062,12.6171875 L56.5585938,12.6171875 L56.5585938,14.9492188 L59.7871094,14.9492188 L59.7871094,16.1210938 L56.5585938,16.1210938 L56.5585938,18.8105469 L60.0039062,18.8105469 L60.0039062,20 Z" id="Start-Manufacture" fill="#FFFFFF"></path>
            </g>
            <g id="Group-2-Copy-6" transform="translate(567.000000, 217.000000)">
                <path d="M0.5,0.5 L56.0078091,0.5 C64.012205,0.5 70.5,6.99062985 70.5,15 C70.5,23.0084507 64.0120549,29.5 56.0078091,29.5 L0.5,29.5 L0.5,0.5 Z" id="Mask" stroke="#5D6173"></path>
                <path d="M25.2363281,15.7050781 C25.2363281,16.7441458 25.0380879,17.6191371 24.6416016,18.3300781 C24.2451152,19.0410192 23.6679725,19.5410142 22.9101562,19.8300781 L24.9609375,22.0390625 L23.0742188,22.0390625 L21.4570312,20.1171875 L21.2285156,20.1171875 C19.9355404,20.1171875 18.9423863,19.7334023 18.2490234,18.9658203 C17.5556606,18.1982383 17.2089844,17.1074289 17.2089844,15.6933594 C17.2089844,14.2792898 17.5576137,13.1933632 18.2548828,12.4355469 C18.9521519,11.6777306 19.9472592,11.2988281 21.2402344,11.2988281 C22.5136782,11.2988281 23.4980434,11.6835899 24.1933594,12.453125 C24.8886754,13.2226601 25.2363281,14.3066336 25.2363281,15.7050781 Z M18.6972656,15.7050781 C18.6972656,16.7597709 18.9101541,17.5595676 19.3359375,18.1044922 C19.7617209,18.6494168 20.3925739,18.921875 21.2285156,18.921875 C22.060551,18.921875 22.6884744,18.6523464 23.1123047,18.1132812 C23.5361349,17.5742161 23.7480469,16.7714897 23.7480469,15.7050781 C23.7480469,14.6542916 23.538088,13.8574246 23.1181641,13.3144531 C22.6982401,12.7714817 22.0722698,12.5 21.2402344,12.5 C20.4003864,12.5 19.7666037,12.7714817 19.3388672,13.3144531 C18.9111307,13.8574246 18.6972656,14.6542916 18.6972656,15.7050781 Z M32.6777344,20 L31.2773438,20 L31.2773438,12.6347656 L28.7578125,12.6347656 L28.7578125,11.4335938 L35.1972656,11.4335938 L35.1972656,12.6347656 L32.6777344,12.6347656 L32.6777344,20 Z M41.9296875,15.3417969 L43.9570312,11.4335938 L45.4804688,11.4335938 L42.6269531,16.6777344 L42.6269531,20 L41.2207031,20 L41.2207031,16.7246094 L38.3789062,11.4335938 L39.9023438,11.4335938 L41.9296875,15.3417969 Z" id="Start-Manufacture" fill="#FFFFFF" opacity="0.5"></path>
            </g>
        </g>
    </g>
</svg>