<?xml version="1.0" encoding="UTF-8"?>
<svg width="348px" height="334px" viewBox="0 0 348 334" version="1.1" xmlns="http://www.w3.org/2000/svg" xmlns:xlink="http://www.w3.org/1999/xlink">
    <!-- Generator: Sketch 43.2 (39069) - http://www.bohemiancoding.com/sketch -->
    <title>Graph 3</title>
    <desc>Created with Sketch.</desc>
    <defs>
        <rect id="path-1" x="0" y="0" width="288" height="274" rx="5"></rect>
        <filter x="-15.6%" y="-16.4%" width="131.2%" height="132.8%" filterUnits="objectBoundingBox" id="filter-2">
            <feOffset dx="0" dy="0" in="SourceAlpha" result="shadowOffsetOuter1"></feOffset>
            <feGaussianBlur stdDeviation="15" in="shadowOffsetOuter1" result="shadowBlurOuter1"></feGaussianBlur>
            <feColorMatrix values="0 0 0 0 0   0 0 0 0 0   0 0 0 0 0  0 0 0 0.2 0" type="matrix" in="shadowBlurOuter1"></feColorMatrix>
        </filter>
    </defs>
    <g id="Manufacturer-Scratch-1" stroke="none" stroke-width="1" fill="none" fill-rule="evenodd">
        <g id="Graph-3" transform="translate(30.000000, 30.000000)">
            <g id="Line-Copy-5-+-Line-Copy-6-+-Line-Copy-7-+-Line-Copy-8-+-Line-Copy-9-+-Stroke-3-Copy-+-Stroke-3-Copy-Mask-Copy-Copy">
                <g id="Mask">
                    <use fill="black" fill-opacity="1" filter="url(#filter-2)" xlink:href="#path-1"></use>
                    <use fill="#343640" fill-rule="evenodd" xlink:href="#path-1"></use>
                </g>
            </g>
            <path d="M42.9882812,244 L41.265625,244 L41.265625,225.279297 C41.265625,223.58007 41.3359368,221.816415 41.4765625,219.988281 C41.3007804,220.164063 41.1191416,220.333984 40.9316406,220.498047 C40.7441397,220.66211 38.9336109,222.085924 35.5,224.769531 L34.4980469,223.521484 L41.4765625,218.300781 L42.9882812,218.300781 L42.9882812,244 Z M61.7792969,217.861328 C63.9589953,217.861328 65.7138605,218.417963 67.0439453,219.53125 C68.3740301,220.644537 69.0390625,222.150381 69.0390625,224.048828 C69.0390625,225.361335 68.6259807,226.521479 67.7998047,227.529297 C66.9736287,228.537114 65.6347749,229.468746 63.7832031,230.324219 C66.0332144,231.250005 67.6152298,232.263666 68.5292969,233.365234 C69.4433639,234.466802 69.9003906,235.802727 69.9003906,237.373047 C69.9003906,239.494151 69.1591871,241.187494 67.6767578,242.453125 C66.1943285,243.718756 64.2050906,244.351562 61.7089844,244.351562 C59.1191277,244.351562 57.1328194,243.759772 55.75,242.576172 C54.3671806,241.392572 53.6757812,239.669933 53.6757812,237.408203 C53.6757812,235.873039 54.1621045,234.525396 55.1347656,233.365234 C56.1074267,232.205072 57.6132711,231.214848 59.6523438,230.394531 C57.7656156,229.503902 56.4355507,228.563482 55.6621094,227.573242 C54.888668,226.583003 54.5019531,225.396491 54.5019531,224.013672 C54.5019531,222.783197 54.8124969,221.702153 55.4335938,220.770508 C56.0546906,219.838863 56.9247991,219.121096 58.0439453,218.617188 C59.1630915,218.113279 60.4081963,217.861328 61.7792969,217.861328 Z M55.46875,237.671875 C55.46875,239.289071 56.0165961,240.542964 57.1123047,241.433594 C58.2080133,242.324223 59.7402245,242.769531 61.7089844,242.769531 C63.630869,242.769531 65.1777285,242.297856 66.3496094,241.354492 C67.5214902,240.411128 68.1074219,239.130867 68.1074219,237.513672 C68.1074219,236.06054 67.6474655,234.879887 66.7275391,233.97168 C65.8076126,233.063472 64.0351694,232.111333 61.4101562,231.115234 C59.2538955,231.94727 57.7246139,232.867182 56.8222656,233.875 C55.9199174,234.882818 55.46875,236.14843 55.46875,237.671875 Z M61.7441406,219.443359 C60.0917886,219.443359 58.7646534,219.850582 57.7626953,220.665039 C56.7607372,221.479496 56.2597656,222.595696 56.2597656,224.013672 C56.2597656,224.833988 56.4443341,225.557614 56.8134766,226.18457 C57.182619,226.811527 57.7158168,227.37988 58.4130859,227.889648 C59.110355,228.399417 60.2792887,228.994137 61.9199219,229.673828 C63.8300877,228.935543 65.2011677,228.121098 66.0332031,227.230469 C66.8652385,226.339839 67.28125,225.267584 67.28125,224.013672 C67.28125,222.607415 66.7861378,221.494145 65.7958984,220.673828 C64.8056591,219.853512 63.4550867,219.443359 61.7441406,219.443359 Z" id="18" fill="#FFFFFF"></path>
            <path d="M85.7753906,219.511719 C84.9706991,219.511719 84.3378929,219.796872 83.8769531,220.367188 C83.4160133,220.937503 83.1855469,221.724604 83.1855469,222.728516 C83.1855469,223.779302 83.4072243,224.574216 83.8505859,225.113281 C84.2939475,225.652346 84.9355427,225.921875 85.7753906,225.921875 C86.1386737,225.921875 86.4902327,225.885743 86.8300781,225.813477 C87.1699236,225.741211 87.5234357,225.648438 87.890625,225.535156 L87.890625,226.736328 C87.2187466,226.990236 86.4570355,227.117188 85.6054688,227.117188 C84.3515562,227.117188 83.3886752,226.737308 82.7167969,225.977539 C82.0449185,225.21777 81.7089844,224.130866 81.7089844,222.716797 C81.7089844,221.826167 81.8720687,221.046878 82.1982422,220.378906 C82.5244157,219.710934 82.9960907,219.199221 83.6132812,218.84375 C84.2304718,218.488279 84.955074,218.310547 85.7871094,218.310547 C86.6621138,218.310547 87.4706994,218.494139 88.2128906,218.861328 L87.7089844,220.027344 C87.4199204,219.890624 87.1142594,219.770508 86.7919922,219.666992 C86.469725,219.563476 86.1308612,219.511719 85.7753906,219.511719 Z M100.101562,222.705078 C100.101562,224.099616 99.7529332,225.18359 99.0556641,225.957031 C98.358395,226.730473 97.3711001,227.117188 96.09375,227.117188 C94.8007748,227.117188 93.8076207,226.733402 93.1142578,225.96582 C92.420895,225.198238 92.0742188,224.107429 92.0742188,222.693359 C92.0742188,221.27929 92.4228481,220.193363 93.1201172,219.435547 C93.8173863,218.677731 94.8124935,218.298828 96.1054688,218.298828 C97.3789126,218.298828 98.3632778,218.68359 99.0585938,219.453125 C99.7539097,220.22266 100.101562,221.306634 100.101562,222.705078 Z M93.5625,222.705078 C93.5625,223.759771 93.7753885,224.559568 94.2011719,225.104492 C94.6269553,225.649417 95.2578083,225.921875 96.09375,225.921875 C96.9257854,225.921875 97.5537088,225.652346 97.9775391,225.113281 C98.4013693,224.574216 98.6132812,223.77149 98.6132812,222.705078 C98.6132812,221.654292 98.4033224,220.857425 97.9833984,220.314453 C97.5634745,219.771482 96.9375042,219.5 96.1054688,219.5 C95.2656208,219.5 94.6318381,219.771482 94.2041016,220.314453 C93.776365,220.857425 93.5625,221.654292 93.5625,222.705078 Z M108.644531,227 L106.160156,219.845703 L106.113281,219.845703 C106.179688,220.908208 106.212891,221.904292 106.212891,222.833984 L106.212891,227 L104.941406,227 L104.941406,218.433594 L106.916016,218.433594 L109.294922,225.248047 L109.330078,225.248047 L111.779297,218.433594 L113.759766,218.433594 L113.759766,227 L112.412109,227 L112.412109,222.763672 C112.412109,222.337888 112.422851,221.783207 112.444336,221.099609 C112.46582,220.416012 112.484375,220.001954 112.5,219.857422 L112.453125,219.857422 L109.880859,227 L108.644531,227 Z M124.6875,221.023438 C124.6875,221.917973 124.394534,222.603513 123.808594,223.080078 C123.222653,223.556643 122.388677,223.794922 121.306641,223.794922 L120.416016,223.794922 L120.416016,227 L119.015625,227 L119.015625,218.433594 L121.482422,218.433594 C122.55274,218.433594 123.35449,218.652342 123.887695,219.089844 C124.420901,219.527346 124.6875,220.171871 124.6875,221.023438 Z M120.416016,222.617188 L121.160156,222.617188 C121.87891,222.617188 122.406248,222.492189 122.742188,222.242188 C123.078127,221.992186 123.246094,221.601565 123.246094,221.070312 C123.246094,220.578123 123.095705,220.210939 122.794922,219.96875 C122.494139,219.726561 122.025394,219.605469 121.388672,219.605469 L120.416016,219.605469 L120.416016,222.617188 Z M129.398438,227 L129.398438,218.433594 L130.798828,218.433594 L130.798828,225.798828 L134.425781,225.798828 L134.425781,227 L129.398438,227 Z M143.748047,227 L138.902344,227 L138.902344,218.433594 L143.748047,218.433594 L143.748047,219.617188 L140.302734,219.617188 L140.302734,221.949219 L143.53125,221.949219 L143.53125,223.121094 L140.302734,223.121094 L140.302734,225.810547 L143.748047,225.810547 L143.748047,227 Z M151.558594,227 L150.158203,227 L150.158203,219.634766 L147.638672,219.634766 L147.638672,218.433594 L154.078125,218.433594 L154.078125,219.634766 L151.558594,219.634766 L151.558594,227 Z M163.236328,227 L158.390625,227 L158.390625,218.433594 L163.236328,218.433594 L163.236328,219.617188 L159.791016,219.617188 L159.791016,221.949219 L163.019531,221.949219 L163.019531,223.121094 L159.791016,223.121094 L159.791016,225.810547 L163.236328,225.810547 L163.236328,227 Z M87.0703125,241.673828 C87.0703125,242.435551 86.7949246,243.033201 86.2441406,243.466797 C85.6933566,243.900393 84.9335986,244.117188 83.9648438,244.117188 C82.9960889,244.117188 82.2031281,243.966798 81.5859375,243.666016 L81.5859375,242.341797 C81.9765645,242.525392 82.3915994,242.669921 82.8310547,242.775391 C83.27051,242.88086 83.6796856,242.933594 84.0585938,242.933594 C84.613284,242.933594 85.0224596,242.828126 85.2861328,242.617188 C85.549806,242.406249 85.6816406,242.123049 85.6816406,241.767578 C85.6816406,241.447264 85.5605481,241.175782 85.3183594,240.953125 C85.0761707,240.730468 84.5761757,240.466798 83.8183594,240.162109 C83.0371055,239.845702 82.4863297,239.484377 82.1660156,239.078125 C81.8457015,238.671873 81.6855469,238.183597 81.6855469,237.613281 C81.6855469,236.898434 81.9394506,236.33594 82.4472656,235.925781 C82.9550807,235.515623 83.6367145,235.310547 84.4921875,235.310547 C85.3125041,235.310547 86.1289022,235.490233 86.9414062,235.849609 L86.4960938,236.992188 C85.7343712,236.671873 85.0546905,236.511719 84.4570312,236.511719 C84.003904,236.511719 83.6601574,236.610351 83.4257812,236.807617 C83.1914051,237.004884 83.0742188,237.265623 83.0742188,237.589844 C83.0742188,237.812501 83.1210933,238.002929 83.2148438,238.161133 C83.3085942,238.319337 83.4628896,238.468749 83.6777344,238.609375 C83.8925792,238.750001 84.2792941,238.935546 84.8378906,239.166016 C85.4668,239.427736 85.9277329,239.671874 86.2207031,239.898438 C86.5136733,240.125001 86.7285149,240.380858 86.8652344,240.666016 C87.0019538,240.951173 87.0703125,241.287107 87.0703125,241.673828 Z M94.6875,244 L93.2871094,244 L93.2871094,236.634766 L90.7675781,236.634766 L90.7675781,235.433594 L97.2070312,235.433594 L97.2070312,236.634766 L94.6875,236.634766 L94.6875,244 Z M108.884766,239.705078 C108.884766,241.099616 108.536136,242.18359 107.838867,242.957031 C107.141598,243.730473 106.154303,244.117188 104.876953,244.117188 C103.583978,244.117188 102.590824,243.733402 101.897461,242.96582 C101.204098,242.198238 100.857422,241.107429 100.857422,239.693359 C100.857422,238.27929 101.206051,237.193363 101.90332,236.435547 C102.600589,235.677731 103.595697,235.298828 104.888672,235.298828 C106.162116,235.298828 107.146481,235.68359 107.841797,236.453125 C108.537113,237.22266 108.884766,238.306634 108.884766,239.705078 Z M102.345703,239.705078 C102.345703,240.759771 102.558592,241.559568 102.984375,242.104492 C103.410158,242.649417 104.041011,242.921875 104.876953,242.921875 C105.708989,242.921875 106.336912,242.652346 106.760742,242.113281 C107.184572,241.574216 107.396484,240.77149 107.396484,239.705078 C107.396484,238.654292 107.186526,237.857425 106.766602,237.314453 C106.346678,236.771482 105.720707,236.5 104.888672,236.5 C104.048824,236.5 103.415041,236.771482 102.987305,237.314453 C102.559568,237.857425 102.345703,238.654292 102.345703,239.705078 Z M119.396484,238.023438 C119.396484,238.917973 119.103519,239.603513 118.517578,240.080078 C117.931638,240.556643 117.097662,240.794922 116.015625,240.794922 L115.125,240.794922 L115.125,244 L113.724609,244 L113.724609,235.433594 L116.191406,235.433594 C117.261724,235.433594 118.063474,235.652342 118.59668,236.089844 C119.129885,236.527346 119.396484,237.171871 119.396484,238.023438 Z M115.125,239.617188 L115.869141,239.617188 C116.587894,239.617188 117.115233,239.492189 117.451172,239.242188 C117.787111,238.992186 117.955078,238.601565 117.955078,238.070312 C117.955078,237.578123 117.804689,237.210939 117.503906,236.96875 C117.203123,236.726561 116.734378,236.605469 116.097656,236.605469 L115.125,236.605469 L115.125,239.617188 Z M129.046875,241.673828 C129.046875,242.435551 128.771487,243.033201 128.220703,243.466797 C127.669919,243.900393 126.910161,244.117188 125.941406,244.117188 C124.972651,244.117188 124.179691,243.966798 123.5625,243.666016 L123.5625,242.341797 C123.953127,242.525392 124.368162,242.669921 124.807617,242.775391 C125.247073,242.88086 125.656248,242.933594 126.035156,242.933594 C126.589847,242.933594 126.999022,242.828126 127.262695,242.617188 C127.526369,242.406249 127.658203,242.123049 127.658203,241.767578 C127.658203,241.447264 127.537111,241.175782 127.294922,240.953125 C127.052733,240.730468 126.552738,240.466798 125.794922,240.162109 C125.013668,239.845702 124.462892,239.484377 124.142578,239.078125 C123.822264,238.671873 123.662109,238.183597 123.662109,237.613281 C123.662109,236.898434 123.916013,236.33594 124.423828,235.925781 C124.931643,235.515623 125.613277,235.310547 126.46875,235.310547 C127.289067,235.310547 128.105465,235.490233 128.917969,235.849609 L128.472656,236.992188 C127.710934,236.671873 127.031253,236.511719 126.433594,236.511719 C125.980466,236.511719 125.63672,236.610351 125.402344,236.807617 C125.167968,237.004884 125.050781,237.265623 125.050781,237.589844 C125.050781,237.812501 125.097656,238.002929 125.191406,238.161133 C125.285157,238.319337 125.439452,238.468749 125.654297,238.609375 C125.869142,238.750001 126.255857,238.935546 126.814453,239.166016 C127.443363,239.427736 127.904295,239.671874 128.197266,239.898438 C128.490236,240.125001 128.705077,240.380858 128.841797,240.666016 C128.978516,240.951173 129.046875,241.287107 129.046875,241.673828 Z" id="complete-stops" fill="#FFFFFF" opacity="0.5"></path>
            <path d="M143.5,280.5 L143.5,55.5" id="Line" stroke="#5D6173" stroke-width="3" stroke-linecap="round" transform="translate(143.500000, 168.000000) rotate(90.000000) translate(-143.500000, -168.000000) "></path>
            <path d="M144.5,214.5 L144.5,-10.5" id="Line-Copy-11" stroke="#5D6173" stroke-width="3" stroke-linecap="round" transform="translate(144.500000, 102.000000) rotate(90.000000) translate(-144.500000, -102.000000) "></path>
            <path d="M144.5,162 L144.5,-63" id="Line-Copy-15" stroke="#5D6173" stroke-width="3" stroke-linecap="round" transform="translate(144.500000, 49.500000) rotate(90.000000) translate(-144.500000, -49.500000) "></path>
            <path d="M106,243 L106,93" id="Line" stroke="#B07CE8" stroke-width="3" stroke-linecap="round" transform="translate(106.000000, 168.000000) rotate(90.000000) translate(-106.000000, -168.000000) "></path>
            <path d="M92,162 L92,42" id="Line-Copy-12" stroke="#FF509E" stroke-width="3" stroke-linecap="round" transform="translate(92.000000, 102.000000) rotate(90.000000) translate(-92.000000, -102.000000) "></path>
            <path d="M92,109.5 L92,-10.5" id="Line-Copy-16" stroke="#FFB000" stroke-width="3" stroke-linecap="round" transform="translate(92.000000, 49.500000) rotate(90.000000) translate(-92.000000, -49.500000) "></path>
            <path d="M157,151 L157,161" id="Line" stroke="#B07CE8" stroke-width="3" stroke-linecap="round"></path>
            <path d="M107,85 L107,95" id="Line-Copy-13" stroke="#FF509E" stroke-width="3" stroke-linecap="round"></path>
            <path d="M207,32.5 L207,42.5" id="Line-Copy-17" stroke="#FFB000" stroke-width="3" stroke-linecap="round"></path>
            <path d="M157,174 L157,184" id="Line-Copy-10" stroke="#B07CE8" stroke-width="3" stroke-linecap="round"></path>
            <path d="M107,108 L107,118" id="Line-Copy-14" stroke="#FF509E" stroke-width="3" stroke-linecap="round"></path>
            <path d="M207,55.5 L207,65.5" id="Line-Copy-18" stroke="#FFB000" stroke-width="3" stroke-linecap="round"></path>
        </g>
    </g>
</svg>