<?xml version="1.0" encoding="UTF-8"?>
<svg width="348px" height="334px" viewBox="0 0 348 334" version="1.1" xmlns="http://www.w3.org/2000/svg" xmlns:xlink="http://www.w3.org/1999/xlink">
    <!-- Generator: Sketch 43.2 (39069) - http://www.bohemiancoding.com/sketch -->
    <title>Graph 2</title>
    <desc>Created with Sketch.</desc>
    <defs>
        <rect id="path-1" x="0" y="0" width="288" height="274" rx="5"></rect>
        <filter x="-15.6%" y="-16.4%" width="131.2%" height="132.8%" filterUnits="objectBoundingBox" id="filter-2">
            <feOffset dx="0" dy="0" in="SourceAlpha" result="shadowOffsetOuter1"></feOffset>
            <feGaussianBlur stdDeviation="15" in="shadowOffsetOuter1" result="shadowBlurOuter1"></feGaussianBlur>
            <feColorMatrix values="0 0 0 0 0   0 0 0 0 0   0 0 0 0 0  0 0 0 0.2 0" type="matrix" in="shadowBlurOuter1"></feColorMatrix>
        </filter>
    </defs>
    <g id="Manufacturer-Scratch-1" stroke="none" stroke-width="1" fill="none" fill-rule="evenodd">
        <g id="Graph-2" transform="translate(30.000000, 30.000000)">
            <g id="Line-Copy-5-+-Line-Copy-6-+-Line-Copy-7-+-Line-Copy-8-+-Line-Copy-9-+-Stroke-3-Copy-+-Stroke-3-Copy-Mask-Copy">
                <g id="Mask">
                    <use fill="black" fill-opacity="1" filter="url(#filter-2)" xlink:href="#path-1"></use>
                    <use fill="#343640" fill-rule="evenodd" xlink:href="#path-1"></use>
                </g>
            </g>
            <path d="M42.9882812,244 L41.265625,244 L41.265625,225.279297 C41.265625,223.58007 41.3359368,221.816415 41.4765625,219.988281 C41.3007804,220.164063 41.1191416,220.333984 40.9316406,220.498047 C40.7441397,220.66211 38.9336109,222.085924 35.5,224.769531 L34.4980469,223.521484 L41.4765625,218.300781 L42.9882812,218.300781 L42.9882812,244 Z M71.6054688,237.443359 L67.1757812,237.443359 L67.1757812,244 L65.5234375,244 L65.5234375,237.443359 L52.3046875,237.443359 L52.3046875,236.265625 L65.0488281,218.160156 L67.1757812,218.160156 L67.1757812,235.931641 L71.6054688,235.931641 L71.6054688,237.443359 Z M65.5234375,235.931641 L65.5234375,228.583984 C65.5234375,225.044904 65.6054679,222.074231 65.7695312,219.671875 L65.6289062,219.671875 C65.3945301,220.105471 64.6738342,221.207022 63.4667969,222.976562 L54.3964844,235.931641 L65.5234375,235.931641 Z" id="14" fill="#FFFFFF"></path>
            <path d="M89.7363281,222.705078 C89.7363281,223.744146 89.5380879,224.619137 89.1416016,225.330078 C88.7451152,226.041019 88.1679725,226.541014 87.4101562,226.830078 L89.4609375,229.039062 L87.5742188,229.039062 L85.9570312,227.117188 L85.7285156,227.117188 C84.4355404,227.117188 83.4423863,226.733402 82.7490234,225.96582 C82.0556606,225.198238 81.7089844,224.107429 81.7089844,222.693359 C81.7089844,221.27929 82.0576137,220.193363 82.7548828,219.435547 C83.4521519,218.677731 84.4472592,218.298828 85.7402344,218.298828 C87.0136782,218.298828 87.9980434,218.68359 88.6933594,219.453125 C89.3886754,220.22266 89.7363281,221.306634 89.7363281,222.705078 Z M83.1972656,222.705078 C83.1972656,223.759771 83.4101541,224.559568 83.8359375,225.104492 C84.2617209,225.649417 84.8925739,225.921875 85.7285156,225.921875 C86.560551,225.921875 87.1884744,225.652346 87.6123047,225.113281 C88.0361349,224.574216 88.2480469,223.77149 88.2480469,222.705078 C88.2480469,221.654292 88.038088,220.857425 87.6181641,220.314453 C87.1982401,219.771482 86.5722698,219.5 85.7402344,219.5 C84.9003864,219.5 84.2666037,219.771482 83.8388672,220.314453 C83.4111307,220.857425 83.1972656,221.654292 83.1972656,222.705078 Z M101.291016,218.433594 L101.291016,223.976562 C101.291016,224.609378 101.155275,225.163084 100.883789,225.637695 C100.612303,226.112307 100.219729,226.477538 99.7060547,226.733398 C99.1923802,226.989259 98.5781286,227.117188 97.8632812,227.117188 C96.8007759,227.117188 95.9746123,226.83594 95.3847656,226.273438 C94.7949189,225.710935 94.5,224.937505 94.5,223.953125 L94.5,218.433594 L95.90625,218.433594 L95.90625,223.853516 C95.90625,224.56055 96.0703109,225.08203 96.3984375,225.417969 C96.7265641,225.753908 97.2304654,225.921875 97.9101562,225.921875 C99.2304754,225.921875 99.890625,225.228523 99.890625,223.841797 L99.890625,218.433594 L101.291016,218.433594 Z M111.328125,227 L106.482422,227 L106.482422,218.433594 L111.328125,218.433594 L111.328125,219.617188 L107.882812,219.617188 L107.882812,221.949219 L111.111328,221.949219 L111.111328,223.121094 L107.882812,223.121094 L107.882812,225.810547 L111.328125,225.810547 L111.328125,227 Z M122.894531,218.433594 L122.894531,223.976562 C122.894531,224.609378 122.75879,225.163084 122.487305,225.637695 C122.215819,226.112307 121.823245,226.477538 121.30957,226.733398 C120.795896,226.989259 120.181644,227.117188 119.466797,227.117188 C118.404292,227.117188 117.578128,226.83594 116.988281,226.273438 C116.398435,225.710935 116.103516,224.937505 116.103516,223.953125 L116.103516,218.433594 L117.509766,218.433594 L117.509766,223.853516 C117.509766,224.56055 117.673826,225.08203 118.001953,225.417969 C118.33008,225.753908 118.833981,225.921875 119.513672,225.921875 C120.833991,225.921875 121.494141,225.228523 121.494141,223.841797 L121.494141,218.433594 L122.894531,218.433594 Z M132.931641,227 L128.085938,227 L128.085938,218.433594 L132.931641,218.433594 L132.931641,219.617188 L129.486328,219.617188 L129.486328,221.949219 L132.714844,221.949219 L132.714844,223.121094 L129.486328,223.121094 L129.486328,225.810547 L132.931641,225.810547 L132.931641,227 Z M144.75,222.634766 C144.75,224.048835 144.357426,225.129879 143.572266,225.87793 C142.787105,226.62598 141.656257,227 140.179688,227 L137.783203,227 L137.783203,218.433594 L140.431641,218.433594 C141.794929,218.433594 142.855465,218.800778 143.613281,219.535156 C144.371098,220.269535 144.75,221.302728 144.75,222.634766 Z M143.273438,222.681641 C143.273438,220.630849 142.314463,219.605469 140.396484,219.605469 L139.183594,219.605469 L139.183594,225.822266 L140.179688,225.822266 C142.242198,225.822266 143.273438,224.775401 143.273438,222.681641 Z M89.0976562,239.634766 C89.0976562,241.048835 88.7050821,242.129879 87.9199219,242.87793 C87.1347617,243.62598 86.0039136,244 84.5273438,244 L82.1308594,244 L82.1308594,235.433594 L84.7792969,235.433594 C86.1425849,235.433594 87.2031212,235.800778 87.9609375,236.535156 C88.7187538,237.269535 89.0976562,238.302728 89.0976562,239.634766 Z M87.6210938,239.681641 C87.6210938,237.630849 86.662119,236.605469 84.7441406,236.605469 L83.53125,236.605469 L83.53125,242.822266 L84.5273438,242.822266 C86.5898541,242.822266 87.6210938,241.775401 87.6210938,239.681641 Z M95.3378906,239.417969 L96.3105469,239.417969 C96.9628939,239.417969 97.4355454,239.296876 97.7285156,239.054688 C98.0214858,238.812499 98.1679688,238.453127 98.1679688,237.976562 C98.1679688,237.492185 98.0097672,237.144532 97.6933594,236.933594 C97.3769515,236.722655 96.9003938,236.617188 96.2636719,236.617188 L95.3378906,236.617188 L95.3378906,239.417969 Z M95.3378906,240.578125 L95.3378906,244 L93.9375,244 L93.9375,235.433594 L96.3574219,235.433594 C97.4628962,235.433594 98.2812473,235.640623 98.8125,236.054688 C99.3437527,236.468752 99.609375,237.093746 99.609375,237.929688 C99.609375,238.996099 99.054693,239.755857 97.9453125,240.208984 L100.365234,244 L98.7714844,244 L96.7207031,240.578125 L95.3378906,240.578125 Z M104.607422,244 L104.607422,235.433594 L106.007812,235.433594 L106.007812,244 L104.607422,244 Z M111.269531,244 L111.269531,235.433594 L112.669922,235.433594 L112.669922,242.798828 L116.296875,242.798828 L116.296875,244 L111.269531,244 Z M120.773438,244 L120.773438,235.433594 L122.173828,235.433594 L122.173828,242.798828 L125.800781,242.798828 L125.800781,244 L120.773438,244 Z M135.216797,241.673828 C135.216797,242.435551 134.941409,243.033201 134.390625,243.466797 C133.839841,243.900393 133.080083,244.117188 132.111328,244.117188 C131.142573,244.117188 130.349612,243.966798 129.732422,243.666016 L129.732422,242.341797 C130.123049,242.525392 130.538084,242.669921 130.977539,242.775391 C131.416994,242.88086 131.82617,242.933594 132.205078,242.933594 C132.759768,242.933594 133.168944,242.828126 133.432617,242.617188 C133.69629,242.406249 133.828125,242.123049 133.828125,241.767578 C133.828125,241.447264 133.707032,241.175782 133.464844,240.953125 C133.222655,240.730468 132.72266,240.466798 131.964844,240.162109 C131.18359,239.845702 130.632814,239.484377 130.3125,239.078125 C129.992186,238.671873 129.832031,238.183597 129.832031,237.613281 C129.832031,236.898434 130.085935,236.33594 130.59375,235.925781 C131.101565,235.515623 131.783199,235.310547 132.638672,235.310547 C133.458988,235.310547 134.275387,235.490233 135.087891,235.849609 L134.642578,236.992188 C133.880856,236.671873 133.201175,236.511719 132.603516,236.511719 C132.150388,236.511719 131.806642,236.610351 131.572266,236.807617 C131.337889,237.004884 131.220703,237.265623 131.220703,237.589844 C131.220703,237.812501 131.267578,238.002929 131.361328,238.161133 C131.455079,238.319337 131.609374,238.468749 131.824219,238.609375 C132.039064,238.750001 132.425778,238.935546 132.984375,239.166016 C133.613284,239.427736 134.074217,239.671874 134.367188,239.898438 C134.660158,240.125001 134.874999,240.380858 135.011719,240.666016 C135.148438,240.951173 135.216797,241.287107 135.216797,241.673828 Z" id="Queued-Drills" fill="#FFFFFF" opacity="0.5"></path>
            <g id="Group-2" transform="translate(38.000000, 47.000000)" stroke-width="3" stroke-linecap="round">
                <path d="M1.5,139.5 L1.5,0.467629668" id="Line" stroke="#5D6173"></path>
                <path d="M1.5,139.5 L1.5,83.5" id="Line" stroke="#40D5BB"></path>
            </g>
            <g id="Group-2-Copy-7" transform="translate(61.000000, 47.000000)" stroke-width="3" stroke-linecap="round">
                <path d="M1.5,139.5 L1.5,0.467629668" id="Line" stroke="#5D6173"></path>
                <path d="M1.5,139.5 L1.5,19.5" id="Line" stroke="#40D5BB"></path>
            </g>
            <g id="Group-2-Copy-8" transform="translate(84.000000, 47.000000)" stroke-width="3" stroke-linecap="round">
                <path d="M1.5,139.5 L1.5,0.467629668" id="Line" stroke="#5D6173"></path>
                <path d="M1.5,139.5 L1.5,109.5" id="Line" stroke="#40D5BB"></path>
            </g>
            <g id="Group-2-Copy-9" transform="translate(107.000000, 47.000000)" stroke-width="3" stroke-linecap="round">
                <path d="M1.5,139.5 L1.5,0.467629668" id="Line" stroke="#5D6173"></path>
                <path d="M1.5,139.5 L1.5,49.5" id="Line" stroke="#40D5BB"></path>
            </g>
            <g id="Group-2-Copy-10" transform="translate(130.000000, 47.000000)" stroke-width="3" stroke-linecap="round">
                <path d="M1.5,139.5 L1.5,0.467629668" id="Line" stroke="#5D6173"></path>
                <path d="M1.5,139.5 L1.5,121.5" id="Line" stroke="#40D5BB"></path>
            </g>
            <g id="Group-2-Copy-11" transform="translate(153.000000, 47.000000)" stroke-width="3" stroke-linecap="round">
                <path d="M1.5,139.5 L1.5,0.467629668" id="Line" stroke="#5D6173"></path>
                <path d="M1.5,139.5 L1.5,14.5" id="Line" stroke="#40D5BB"></path>
            </g>
            <g id="Group-2-Copy-12" transform="translate(176.000000, 47.000000)" stroke-width="3" stroke-linecap="round">
                <path d="M1.5,139.5 L1.5,0.467629668" id="Line" stroke="#5D6173"></path>
                <path d="M1.5,139.5 L1.5,99.5" id="Line" stroke="#40D5BB"></path>
            </g>
            <g id="Group-2-Copy-13" transform="translate(199.000000, 47.000000)" stroke-width="3" stroke-linecap="round">
                <path d="M1.5,139.5 L1.5,0.467629668" id="Line" stroke="#5D6173"></path>
                <path d="M1.5,139.5 L1.5,129.5" id="Line" stroke="#40D5BB"></path>
            </g>
            <g id="Group-2-Copy-14" transform="translate(222.000000, 47.000000)" stroke-width="3" stroke-linecap="round">
                <path d="M1.5,139.5 L1.5,0.467629668" id="Line" stroke="#5D6173"></path>
                <path d="M1.5,139.5 L1.5,64.5" id="Line" stroke="#40D5BB"></path>
            </g>
            <g id="Group-2-Copy-15" transform="translate(245.000000, 47.000000)" stroke-width="3" stroke-linecap="round">
                <path d="M1.5,139.5 L1.5,0.467629668" id="Line" stroke="#5D6173"></path>
                <path d="M1.5,139.5 L1.5,49.5" id="Line" stroke="#40D5BB"></path>
            </g>
        </g>
    </g>
</svg>