<?xml version="1.0" encoding="UTF-8"?>
<svg width="15px" height="10px" viewBox="0 0 15 10" version="1.1" xmlns="http://www.w3.org/2000/svg" xmlns:xlink="http://www.w3.org/1999/xlink">
    <!-- Generator: Sketch 43.2 (39069) - http://www.bohemiancoding.com/sketch -->
    <title>Fill 2</title>
    <desc>Created with Sketch.</desc>
    <defs></defs>
    <g id="Mobile-Scratch-2" stroke="none" stroke-width="1" fill="none" fill-rule="evenodd">
        <g id="Car-Select-Copy" transform="translate(-203.000000, -567.000000)" fill="#000000">
            <g id="Bitmap-Copy-8" transform="translate(35.000000, 541.000000)">
                <path d="M182.5155,30.6094999 L178.0155,26.1094999 C177.86925,25.96325 177.6315,25.96325 177.48525,26.1094999 C177.339,26.2557497 177.339,26.4935 177.48525,26.6397498 L181.344749,30.4992497 L169.125,30.4992497 C168.918,30.4992497 168.75,30.6672496 168.75,30.8742496 C168.75,31.0812497 168.918,31.2492496 169.125,31.2492496 L181.344749,31.2492496 L177.485249,35.1087503 C177.339,35.2550001 177.339,35.4927496 177.485249,35.6390008 C177.558749,35.7125005 177.654749,35.7485008 177.75075,35.7485008 C177.84675,35.7485008 177.942749,35.711751 178.01625,35.6390008 L182.51625,31.1390008 C182.662499,30.9927511 182.662499,30.7550008 182.51625,30.6087511 L182.5155,30.6094999 Z" id="Fill-2"></path>
            </g>
        </g>
    </g>
</svg>