<?xml version="1.0" encoding="UTF-8"?>
<svg width="19px" height="25px" viewBox="0 0 19 25" version="1.1" xmlns="http://www.w3.org/2000/svg" xmlns:xlink="http://www.w3.org/1999/xlink">
    <!-- Generator: Sketch 43.2 (39069) - http://www.bohemiancoding.com/sketch -->
    <title>Arium Logo Copy</title>
    <desc>Created with Sketch.</desc>
    <defs></defs>
    <g id="Mobile-Scratch-2" stroke="none" stroke-width="1" fill="none" fill-rule="evenodd">
        <g id="Car-Select-Copy" transform="translate(-332.000000, -26.000000)" fill="#FFFFFF">
            <path d="M347.9533,45.073777 L342.204369,45.073777 C341.642265,45.073777 341.23827,44.531436 341.400449,43.9931641 L342.059629,41.7947359 C342.264242,41.112886 342.892032,40.6461124 343.604109,40.6461124 L349.112968,40.6461124 C349.851784,40.6461124 350.363317,41.3820219 350.105806,42.0737537 L349.351877,44.1012835 C349.134475,44.6860584 348.57644,45.073777 347.9533,45.073777 Z M339.332171,45.073777 L338.403287,48.1236874 C337.919479,49.712231 336.179185,51 334.533109,51 L334.832964,51 C333.179332,51 332.281222,49.7413702 332.834612,48.1670563 L340.519741,26.3040132 C340.583683,26.1220703 340.755744,26 340.948731,26 L345.316523,26 C346.373303,26 347.31557,26.6667364 347.66783,27.6642253 L348.947243,31.3176153 C349.24835,32.1761765 348.452567,33.014974 347.579474,32.7609515 C347.579474,32.7609515 345.596122,32.2052409 344.798596,31.9320359 C344.594564,31.8617001 344.420178,31.7291667 344.35798,31.5222284 C344.081288,30.5939128 343.908064,29.9963495 343.879,29.8661412 C343.504651,31.3193592 342.431595,34.9128767 340.660413,40.6461124 L339.332171,45.073777 Z" id="Arium-Logo-Copy"></path>
        </g>
    </g>
</svg>