<?xml version="1.0" encoding="UTF-8"?>
<svg width="18px" height="18px" viewBox="0 0 18 18" version="1.1" xmlns="http://www.w3.org/2000/svg" xmlns:xlink="http://www.w3.org/1999/xlink">
    <!-- Generator: Sketch 43.2 (39069) - http://www.bohemiancoding.com/sketch -->
    <title>Fill 2</title>
    <desc>Created with Sketch.</desc>
    <defs></defs>
    <g id="Manufacturer-Scratch-1" stroke="none" stroke-width="1" fill="none" fill-rule="evenodd">
        <g id="Manufacturer-1-Copy" transform="translate(-1503.000000, -51.000000)" fill="#5D6173">
            <path d="M1515.5,61.9999992 L1514.71,61.9999992 L1514.43,61.7299987 C1515.41,60.5899993 1516,59.1099989 1516,57.4999994 C1516,53.9099995 1513.09,50.9999998 1509.5,50.9999998 C1505.91,50.9999998 1503,53.9099995 1503,57.4999994 C1503,61.0899993 1505.91,63.999999 1509.5,63.999999 C1511.11,63.999999 1512.59,63.4099989 1513.73,62.4299994 L1514,62.7099991 L1514,63.4999991 L1519,68.4899985 L1520.49,66.9999989 L1515.5,61.9999992 Z M1509.5,61.9999992 C1507.01,61.9999992 1505,59.989999 1505,57.4999994 C1505,55.0099998 1507.01,52.9999997 1509.5,52.9999997 C1511.99,52.9999997 1514,55.0099998 1514,57.4999994 C1514,59.989999 1511.99,61.9999992 1509.5,61.9999992 Z" id="Fill-2"></path>
        </g>
    </g>
</svg>