<svg id="Layer_1" data-name="Layer 1" xmlns="http://www.w3.org/2000/svg" xmlns:xlink="http://www.w3.org/1999/xlink" viewBox="0 0 802.57 987.26"><defs><style>.cls-1{fill:none;}.cls-2{fill:#fff;}.cls-3{clip-path:url(#clip-path);}.cls-4{fill:#bebebe;}.cls-5{fill:#a4a4a4;}.cls-6{fill:#565656;}.cls-7{fill:#252525;}.cls-8{clip-path:url(#clip-path-2);}.cls-9{fill:#f3f3f3;}.cls-10{fill:#8f8b8b;}.cls-11{fill:#d8d8d8;}.cls-12{fill:#3d3d3d;}.cls-13{fill:#dcd7d6;}.cls-14{fill:#c1bcbb;}.cls-15{fill:#f7f3f1;}</style><clipPath id="clip-path"><rect class="cls-1" x="-886.28" y="-0.2" width="802.43" height="987.28"/></clipPath><clipPath id="clip-path-2"><rect class="cls-2" width="802.43" height="987.26"/></clipPath></defs><title>car2 copy</title><g class="cls-3"><ellipse class="cls-4" cx="-198.8" cy="885.83" rx="552.23" ry="42.83"/><path class="cls-5" d="M-656.37,459.82c-1.5,14.79-8.66,85.17,40.58,126.23,20.18,16.82,42.47,22.57,56.35,24.79H355.69c16.64-11.47,50.75-38.64,67.62-85.65,16.11-44.91,11.8-95-9.59-140.33l-49-49L279.05,119.46A65,65,0,0,0,229.48,83.4H-451.25a43.92,43.92,0,0,0-27.05,4.51,43.76,43.76,0,0,0-18,18q-48.46,118.34-96.92,236.67l-2.45,2.06.19.19C-607.57,355.5-649.8,395.36-656.37,459.82Z"/><path class="cls-6" d="M413.72,384.86c21.39,45.3,25.7,95.42,9.59,140.33-16.87,47-51,74.18-67.62,85.65H-559.44c-13.9-2.2-36.07-8-56.35-24.79-53.24-44.17-41.42-121.24-40.58-126.23l60.86-115-.19-.19-110.25,92.61a896.73,896.73,0,0,0-4.51,117.21,905.29,905.29,0,0,0,38.32,236.67A5269.6,5269.6,0,0,0-140.2,818.21a5267.89,5267.89,0,0,0,577-31.56q18-171.3,36.07-342.61Z"/><path class="cls-7" d="M-406.17,655.92H184.38a0,0,0,0,1,0,0V755.1a0,0,0,0,1,0,0H-347.85a58.32,58.32,0,0,1-58.32-58.32V655.92A0,0,0,0,1-406.17,655.92Z"/><path class="cls-4" d="M-462.52,315.56c24.6,105.36,44.64,183.31,52.9,211.88,1.89,6.52,6,19.92,17.72,31.56a65.38,65.38,0,0,0,35.42,18h478.3l155-252.45"/><path class="cls-7" d="M-550.43,326.83l65.37-182.57a54.34,54.34,0,0,1,13.52-22.54A54.43,54.43,0,0,1-449,108.19H218.21a100,100,0,0,1,27,18,103.42,103.42,0,0,1,22.54,31.55c11.66,24,39.44,85.67,74.38,169Z"/></g><rect class="cls-2" width="802.43" height="987.26"/><g class="cls-8"><rect class="cls-9" width="802.43" height="987.26"/><ellipse class="cls-4" cx="678.46" cy="885.83" rx="552.23" ry="42.83"/><path class="cls-10" d="M183.35,261.47h98.51a24.69,24.69,0,0,1,24.69,24.69v33.92a0,0,0,0,1,0,0H188.07a25.78,25.78,0,0,1-25.78-25.78V282.53a21.06,21.06,0,0,1,21.06-21.06Z"/><rect x="198.35" y="712.27" width="175.81" height="175.81" rx="36.2" ry="36.2"/><path class="cls-11" d="M268.23,615.35H1300.57V426a86.53,86.53,0,0,0-85.65-67.62L1129.26,137.5a86.08,86.08,0,0,0-54.09-42.83H410.23a91.31,91.31,0,0,0-27.05,13.52c-2.91,2.14-16,12-27,31.56C342.41,164,309.4,242.87,270.48,351.63c-9.83,1.71-35.06,7.48-56.35,29.3a101.52,101.52,0,0,0-22.58,36V545.91a138.39,138.39,0,0,0,27.09,37.88A140.68,140.68,0,0,0,268.23,615.35Z"/><path class="cls-12" d="M304.29,353.88l76.64-198.35A63.52,63.52,0,0,1,417,124h653.68a61.46,61.46,0,0,1,31.55,22.54l85.65,211.88Z"/><path class="cls-10" d="M268.23,615.35a140.68,140.68,0,0,1-49.59-31.56,138.39,138.39,0,0,1-27.09-37.88V773.13a2869.52,2869.52,0,0,0,545.51,54.1,2870,2870,0,0,0,563.51-54.1V615.35Z"/><path class="cls-10" d="M250.2,457.57h987.26a0,0,0,0,1,0,0V583.79a0,0,0,0,1,0,0h-909a78.25,78.25,0,0,1-78.25-78.25v-48A0,0,0,0,1,250.2,457.57Z"/><path class="cls-12" d="M250.2,678.46h987.26a0,0,0,0,1,0,0v0a99.18,99.18,0,0,1-99.18,99.18H349.37a99.18,99.18,0,0,1-99.18-99.18v0a0,0,0,0,1,0,0Z"/><rect class="cls-13" x="631.13" y="712.27" width="225.4" height="99.18" rx="18.81" ry="18.81"/><path class="cls-14" d="M304.29,705.51h90.16A49.59,49.59,0,0,1,444,755.1v0a0,0,0,0,1,0,0H353.88a49.59,49.59,0,0,1-49.59-49.59v0a0,0,0,0,1,0,0Z"/><path class="cls-14" d="M270.48,473.34h166.8a0,0,0,0,1,0,0V568a0,0,0,0,1,0,0H344.07a73.59,73.59,0,0,1-73.59-73.59V473.34A0,0,0,0,1,270.48,473.34Z"/><ellipse class="cls-15" cx="357.21" cy="521.18" rx="27.05" ry="34.58" transform="translate(-253.27 358.27) rotate(-40.63)"/></g></svg>