<svg id="Layer_1" data-name="Layer 1" xmlns="http://www.w3.org/2000/svg" xmlns:xlink="http://www.w3.org/1999/xlink" viewBox="0 0 802.17 987.29"><defs><style>.cls-1{fill:none;}.cls-2{clip-path:url(#clip-path);}.cls-3{fill:#f3f3f3;}.cls-4{fill:#bebebe;}.cls-5{fill:#565656;}.cls-6{fill:#a4a4a4;}.cls-7{fill:#fff;}.cls-8{fill:#d8d8d8;}.cls-9{fill:#252525;}</style><clipPath id="clip-path"><rect class="cls-1" y="0.01" width="802.43" height="987.28"/></clipPath></defs><title>car1 copy</title><g class="cls-2"><rect class="cls-3" width="802.43" height="987.28"/><ellipse class="cls-4" cx="687.48" cy="886.03" rx="552.23" ry="42.83"/><path class="cls-5" d="M304.29,365.35l-9-23.86H214.13a44.45,44.45,0,0,1-13.52-23.87c-3.91-18.6,3.17-40.43,18-53.7H340.36"/><rect x="191.59" y="552.44" width="175.81" height="333.59" rx="30.53" ry="30.53"/><path class="cls-6" d="M229.91,460c-1.51,14.79-8.67,85.17,40.57,126.23C290.67,603.08,313,608.82,326.83,611H1242c16.65-11.47,50.75-38.64,67.63-85.65,16.11-44.91,11.8-95-9.59-140.32l-49-49-85.65-216.39a65,65,0,0,0-49.58-36.06H435A43.36,43.36,0,0,0,390,106.14L293,342.81l-2.45,2.06.2.2C278.7,355.71,236.47,395.56,229.91,460Z"/><path class="cls-7" d="M437.07,563.71a24.56,24.56,0,0,1-9.06,7.16,23.78,23.78,0,0,1-6.12,1.85h-90a70.46,70.46,0,0,1,0-139.75h53a34.69,34.69,0,0,1,34.58,19.59q11,46.56,22.09,93.11C441.82,547.58,442.76,556.29,437.07,563.71Z"/><ellipse class="cls-8" cx="357.11" cy="506.81" rx="29.71" ry="34.22" transform="translate(-239.45 338.01) rotate(-39.03)"/><path class="cls-5" d="M1300,385.07c21.39,45.29,25.7,95.41,9.59,140.32-16.88,47-51,74.18-67.63,85.65H326.83c-13.89-2.19-36.06-8-56.35-24.79C217.25,542.08,229.07,465,229.91,460l60.86-114.95-.2-.2L180.32,437.48a899.21,899.21,0,0,0,33.81,353.88,5269.65,5269.65,0,0,0,532,27,5268.17,5268.17,0,0,0,577-31.56l36.06-342.61Z"/><path class="cls-9" d="M294.63,653.87H428.26a0,0,0,0,1,0,0V753a0,0,0,0,1,0,0H300.66a39.19,39.19,0,0,1-39.19-39.19V687A33.16,33.16,0,0,1,294.63,653.87Z"/><path class="cls-9" d="M480.11,656.12h590.55a0,0,0,0,1,0,0V755.3a0,0,0,0,1,0,0H538.42A58.32,58.32,0,0,1,480.11,697V656.12A0,0,0,0,1,480.11,656.12Z"/><circle class="cls-8" cx="376.42" cy="701.2" r="27.05"/><path class="cls-4" d="M423.76,315.76c24.59,105.37,44.64,183.31,52.9,211.88,1.88,6.52,6,19.92,17.71,31.56a65.35,65.35,0,0,0,35.43,18h478.3q77.49-126.23,155-252.45"/><path class="cls-9" d="M335.85,327l65.37-182.57a54.2,54.2,0,0,1,36.06-36.07h667.2a99.85,99.85,0,0,1,27,18A103.6,103.6,0,0,1,1154.06,158c11.66,24,39.44,85.67,74.38,169Z"/></g></svg>