<svg id="Layer_1" data-name="Layer 1" xmlns="http://www.w3.org/2000/svg" xmlns:xlink="http://www.w3.org/1999/xlink" viewBox="0 0 802.43 987.26"><defs><style>.cls-1{fill:#fff;}.cls-2{fill:none;}.cls-3{clip-path:url(#clip-path);}.cls-4{fill:#bebebe;}.cls-5{fill:#d8d8d8;}.cls-6{fill:#3d3d3d;}.cls-7{fill:#8f8b8b;}.cls-8{clip-path:url(#clip-path-2);}.cls-9{fill:#f3f3f3;}.cls-10{fill:#6e757c;}.cls-11{fill:#a4a4a4;}.cls-12{fill:#50565c;}.cls-13{fill:#f7f3f1;}.cls-14{fill:#252525;}</style><clipPath id="clip-path"><rect class="cls-1" x="-895.29" width="802.43" height="987.26"/></clipPath><clipPath id="clip-path-2"><rect class="cls-2" width="802.43" height="987.26"/></clipPath></defs><title>car3 copy</title><rect class="cls-1" x="-895.29" width="802.43" height="987.26"/><g class="cls-3"><ellipse class="cls-4" cx="-216.83" cy="885.83" rx="552.23" ry="42.83"/><path class="cls-5" d="M-627.06,615.35H405.28V426a86.53,86.53,0,0,0-85.66-67.62L234,137.5a86.08,86.08,0,0,0-54.09-42.83H-485.06a91.19,91.19,0,0,0-27.05,13.52c-2.91,2.14-16,12-27,31.56C-552.89,164-585.9,242.87-624.81,351.63c-9.83,1.71-35.06,7.48-56.35,29.3a101.52,101.52,0,0,0-22.58,36V545.91a138.39,138.39,0,0,0,27.09,37.88A140.6,140.6,0,0,0-627.06,615.35Z"/><path class="cls-6" d="M-591,353.88l76.64-198.35a63.44,63.44,0,0,1,13.52-18A63.89,63.89,0,0,1-478.3,124H175.38a61.38,61.38,0,0,1,31.54,22.54q42.83,105.95,85.66,211.88Z"/><path class="cls-7" d="M-627.06,615.35a140.6,140.6,0,0,1-49.59-31.56,138.39,138.39,0,0,1-27.09-37.88V773.13a2869.43,2869.43,0,0,0,545.51,54.1,2870,2870,0,0,0,563.51-54.1V615.35Z"/><path class="cls-7" d="M-645.1,457.57H342.16a0,0,0,0,1,0,0V583.79a0,0,0,0,1,0,0h-909a78.25,78.25,0,0,1-78.25-78.25v-48A0,0,0,0,1-645.1,457.57Z"/><path class="cls-6" d="M-645.1,678.46H342.16a0,0,0,0,1,0,0v0A99.18,99.18,0,0,1,243,777.64H-545.92a99.18,99.18,0,0,1-99.18-99.18v0a0,0,0,0,1,0,0Z"/></g><g class="cls-8"><rect class="cls-9" width="802.43" height="987.26"/><ellipse class="cls-4" cx="701" cy="885.83" rx="579.28" ry="42.83"/><path d="M191.59,610.84H362.9a0,0,0,0,1,0,0V853a32.81,32.81,0,0,1-32.81,32.81H224.4A32.81,32.81,0,0,1,191.59,853V610.84A0,0,0,0,1,191.59,610.84Z"/><path class="cls-10" d="M313.31,281.75H178c-1.4.81-16.72,10-18,27.05-1.12,15.51,9.88,30.92,27,36.06H313.63"/><path class="cls-11" d="M227.66,507.15c-1.63,4.86-17.08,53.74,13.52,94.67,18.82,25.18,44.74,33.54,54.1,36.07H1367.54Q1376.89,541,1386.22,444l-112.7-112.7q-38.31-94.66-76.64-189.34a98.39,98.39,0,0,0-63.1-47.33H428.26a114.12,114.12,0,0,0-58.6,49.59q-45.07,108.2-90.16,216.38-2.52,1-5.42,2.35Q270,413.66,266,464.33Z"/><path class="cls-10" d="M295.28,637.89c-9.36-2.53-35.28-10.89-54.1-36.07C210.58,560.89,226,512,227.66,507.15L266,464.33Q270,413.66,274.08,363a165,165,0,0,0-91.5,108.1q11.26,160,22.54,320.07a46.48,46.48,0,0,0,31.55,27.05H1350.16q8.68-90.16,17.38-180.32Z"/><path class="cls-12" d="M267.84,462.07H1350.16a0,0,0,0,1,0,0V583.79a0,0,0,0,1,0,0h-1041a81.53,81.53,0,0,1-81.53-81.53v0a40.18,40.18,0,0,1,40.18-40.18Z"/><circle class="cls-13" cx="299.78" cy="520.68" r="45.08"/><circle class="cls-13" cx="412.49" cy="520.68" r="45.08"/><circle class="cls-14" cx="385.44" cy="741.57" r="31.56"/><path class="cls-12" d="M486.87,698.75h595.06a0,0,0,0,1,0,0v49.52a40.64,40.64,0,0,1-40.64,40.64H527.51a40.64,40.64,0,0,1-40.64-40.64V698.75A0,0,0,0,1,486.87,698.75Z"/><rect class="cls-14" x="493.63" y="493.63" width="270.48" height="22.54"/><rect class="cls-14" x="493.63" y="529.69" width="270.48" height="22.54"/><path class="cls-6" d="M331.34,331.34,408,151A93,93,0,0,1,444,124h680.72L1242,331.34Z"/></g></svg>