<?xml version="1.0" encoding="UTF-8"?>
<svg width="24px" height="16px" viewBox="0 0 15 10" version="1.1" xmlns="http://www.w3.org/2000/svg" xmlns:xlink="http://www.w3.org/1999/xlink">
 <g>
  <rect fill="none" id="canvas_background" height="402" width="582" y="-1" x="-1"/>
 </g>
 <g>
  <g transform="rotate(-180, 7.68797, 4.87415)" fill-rule="evenodd" fill="none" id="Mobile-Scratch-2">
   <g fill="#FFF" id="Car-Select-Copy">
    <g id="Bitmap-Copy-8">
     <path id="Fill-2" d="m14.515503,4.609497l-4.5,-4.5c-0.146255,-0.14624 -0.384003,-0.14624 -0.530258,0c-0.14624,0.14624 -0.14624,0.384033 0,0.530273l3.859497,3.859497l-12.219742,0c-0.207001,0 -0.375,0.167969 -0.375,0.375c0,0.20697 0.167999,0.375 0.375,0.375l12.219742,0l-3.859497,3.859497c-0.14624,0.14624 -0.14624,0.383972 0,0.530212c0.073502,0.073547 0.16951,0.109497 0.265503,0.109497c0.096008,0 0.192001,-0.036743 0.265503,-0.109497l4.5,-4.5c0.146255,-0.14624 0.146255,-0.383972 0,-0.530212l-0.000748,0.000732z"/>
    </g>
   </g>
  </g>
 </g>
</svg>