<?xml version="1.0" encoding="UTF-8"?>
<svg width="19px" height="19px" viewBox="0 0 19 19" version="1.1" xmlns="http://www.w3.org/2000/svg" xmlns:xlink="http://www.w3.org/1999/xlink">
    <!-- Generator: Sketch 43.2 (39069) - http://www.bohemiancoding.com/sketch -->
    <title>Page 1</title>
    <desc>Created with Sketch.</desc>
    <defs></defs>
    <g id="Mobile-Scratch-2" stroke="none" stroke-width="1" fill="none" fill-rule="evenodd">
        <g id="Build---Extras" transform="translate(-64.000000, -267.000000)" fill="#000000">
            <g id="Group-2" transform="translate(43.000000, 246.000000)">
                <g id="Page-1" transform="translate(21.000000, 21.000000)">
                    <path d="M9.5,19 C6.96199989,19 4.57700014,18.0119991 2.78200006,16.2180004 C0.986999988,14.4240016 0,12.0380001 0,9.5010004 C0,6.96300029 0.988000035,4.57800054 2.78200006,2.78300046 C4.57600021,0.98800039 6.96199989,4.70000032e-07 9.5,4.70000032e-07 C12.0380001,4.70000032e-07 14.4230003,0.98800051 16.2180004,2.78300046 C18.0130004,4.57800054 19,6.96300029 19,9.5010004 C19,12.0390005 18.0119991,14.4239997 16.2180004,16.2180004 C14.4240007,18.012001 12.0380001,19 9.5,19 Z M9.5,1 C4.81299972,1 1,4.81299972 1,9.5 C1,14.1870002 4.81299972,18 9.5,18 C14.1870002,18 18,14.1870002 18,9.5 C18,4.81299972 14.1870002,1 9.5,1 Z" id="Fill-2"></path>
                    <path d="M7.5,13.5 C7.37200021,13.5 7.24399995,13.4510002 7.1459999,13.354 L4.1459999,10.354 C3.95099997,10.1590003 3.95099997,9.842 4.1459999,9.6470003 C4.3409996,9.4520006 4.65799999,9.4520006 4.85299968,9.6470003 L7.49899959,12.2930002 L14.1449995,5.64700031 C14.3399991,5.45200014 14.6569995,5.45200014 14.8519992,5.64700031 C15.0469989,5.84200048 15.0469989,6.15900039 14.8519992,6.35400009 L7.85199928,13.354 C7.75399923,13.4519996 7.62599945,13.5 7.49799919,13.5 L7.5,13.5 Z" id="Fill-3"></path>
                </g>
            </g>
        </g>
    </g>
</svg>