<svg width="24px" height="24px" viewBox="0 0 24 24" version="1.1" xmlns="http://www.w3.org/2000/svg" xmlns:xlink="http://www.w3.org/1999/xlink">
    <!-- Generator: Sketch 46.2 (44496) - http://www.bohemiancoding.com/sketch -->
    <desc>Created with Sketch.</desc>
    <defs></defs>
    <g id="Icons" stroke="none" stroke-width="1" fill="none" fill-rule="evenodd">
        <g id="Setting_24" fill="#FFF">
            <g id="Group">
                <g>
                    <path d="M13.278,23.895 L10.723,23.895 C9.803,23.895 9.054,23.152 9.054,22.239 L9.054,20.914 C9.05226585,20.8508604 9.01286287,20.7949081 8.954,20.772 L7.998,20.378 C7.93246184,20.3499707 7.85652235,20.3637421 7.805,20.413 L6.851,21.353 C6.19675236,21.9918444 5.15224764,21.9918444 4.498,21.353 L2.691,19.573 C2.37496037,19.2637301 2.19683086,18.8401865 2.19683086,18.398 C2.19683086,17.9558135 2.37496037,17.5322699 2.691,17.223 L3.642,16.286 C3.68589785,16.2443509 3.69978857,16.1800567 3.677,16.124 L3.284,15.181 C3.2569903,15.1181505 3.19438189,15.0781287 3.126,15.08 L1.776,15.08 C0.856,15.08 0.107,14.338 0.107,13.425 L0.107,10.574 C0.107,9.661 0.856,8.918 1.776,8.918 L3.122,8.918 C3.191,8.918 3.255,8.878 3.28,8.819 L3.68,7.877 C3.7029555,7.82063832 3.68906962,7.75596979 3.645,7.714 L2.69,6.776 C2.372,6.463 2.197,6.046 2.197,5.601 C2.197,5.156 2.373,4.739 2.69,4.426 L4.497,2.647 C5.15137099,2.00750435 6.19662901,2.00750435 6.851,2.647 L7.802,3.583 C7.85282232,3.63187559 7.92760288,3.64636188 7.993,3.62 L8.952,3.233 C9.01158529,3.21027043 9.05150126,3.15375574 9.053,3.09 L9.053,1.761 C9.053,0.848 9.802,0.105 10.722,0.105 L13.277,0.105 C14.197,0.105 14.946,0.848 14.946,1.761 L14.946,3.086 C14.946,3.147 14.985,3.203 15.046,3.228 L16.003,3.623 C16.0685116,3.6497922 16.1436441,3.63570487 16.195,3.587 L17.149,2.647 C17.8030314,2.00762484 18.8479686,2.00762484 19.502,2.647 L21.309,4.427 C21.627,4.74 21.802,5.157 21.802,5.602 C21.802,6.047 21.627,6.463 21.31,6.777 L20.358,7.714 C20.3141021,7.75564914 20.3002114,7.8199433 20.323,7.876 L20.716,8.82 C20.741,8.88 20.805,8.92 20.875,8.92 L22.224,8.92 C23.144,8.92 23.893,9.663 23.893,10.576 L23.893,13.427 C23.893,14.34 23.144,15.082 22.224,15.082 L20.88,15.082 C20.8122316,15.0812944 20.750366,15.1204498 20.722,15.182 L20.322,16.123 C20.2989639,16.1788559 20.3124511,16.2431188 20.356,16.285 L21.31,17.224 C21.628,17.538 21.803,17.955 21.803,18.401 C21.803,18.844 21.628,19.261 21.31,19.574 L19.503,21.354 C18.8487524,21.9928444 17.8042476,21.9928444 17.15,21.354 L16.199,20.416 C16.1478895,20.3668167 16.0724562,20.3526729 16.007,20.38 L15.049,20.767 C14.9888452,20.789178 14.9483847,20.8459021 14.947,20.91 L14.947,22.239 C14.947,23.151 14.198,23.895 13.278,23.895 L13.278,23.895 Z M7.925,18.863 C8.142,18.863 8.361,18.905 8.57,18.991 L9.524,19.385 C10.1460473,19.6374005 10.5529977,20.2416962 10.553,20.913 L10.553,22.238 C10.553,22.324 10.629,22.394 10.722,22.394 L13.277,22.394 C13.37,22.394 13.446,22.324 13.446,22.238 L13.446,20.909 C13.4460415,20.233247 13.8581225,19.6258238 14.486,19.376 L15.444,18.989 C16.0632939,18.7368575 16.7732196,18.8771916 17.25,19.346 L18.202,20.284 C18.2714805,20.3500319 18.3805195,20.3500319 18.45,20.284 L20.257,18.504 C20.2861926,18.4765347 20.3025184,18.4380785 20.302,18.398 C20.3017046,18.3575934 20.2851195,18.3190149 20.256,18.291 L19.302,17.353 C18.8172319,16.8804512 18.6733488,16.1582537 18.94,15.536 L19.34,14.595 C19.6028337,13.9787554 20.2090494,13.5797324 20.879,13.582 L22.224,13.582 C22.317,13.582 22.393,13.513 22.393,13.427 L22.393,10.576 C22.393,10.49 22.317,10.42 22.224,10.42 L20.875,10.42 C20.2010202,10.4227305 19.5918735,10.0188698 19.332,9.397 L18.94,8.451 C18.6803749,7.83038173 18.8258378,7.11416507 19.307,6.644 L20.258,5.707 C20.286717,5.67914677 20.3028415,5.64079245 20.3026528,5.60078702 C20.3024641,5.56078158 20.2859785,5.52258108 20.257,5.495 L18.45,3.715 C18.3801254,3.64996216 18.2718746,3.64996216 18.202,3.715 L17.248,4.655 C16.7687595,5.1270463 16.0537236,5.26682479 15.432,5.01 L14.475,4.615 C13.8527957,4.36224 13.4458693,3.75758456 13.446,3.086 L13.446,1.761 C13.446,1.675 13.37,1.605 13.277,1.605 L10.722,1.605 C10.629,1.605 10.553,1.675 10.553,1.761 L10.553,3.09 C10.553,3.766 10.145,4.368 9.513,4.623 L8.555,5.011 C7.934,5.261 7.224,5.121 6.749,4.652 L5.797,3.716 C5.72827331,3.64905883 5.61872669,3.64905883 5.55,3.716 L3.743,5.495 C3.71329357,5.52244733 3.69640097,5.56105463 3.69640097,5.6015 C3.69640097,5.64194537 3.71329357,5.68055267 3.743,5.708 L4.697,6.647 C5.183,7.126 5.325,7.84 5.059,8.465 L4.659,9.406 C4.3963801,10.0224231 3.79003003,10.4215346 3.12,10.419 L1.775,10.419 C1.682,10.419 1.606,10.489 1.606,10.575 L1.606,13.426 C1.606,13.512 1.682,13.581 1.775,13.581 L3.125,13.581 C3.804,13.581 4.41,13.983 4.668,14.605 L5.061,15.548 C5.32050346,16.1689522 5.17507889,16.8853762 4.694,17.356 L3.744,18.292 C3.71454251,18.3191062 3.69769789,18.3572513 3.69750817,18.397282 C3.69731845,18.4373127 3.71380076,18.4756158 3.743,18.503 L5.55,20.284 C5.61948053,20.3500319 5.72851947,20.3500319 5.798,20.284 L6.752,19.344 C7.06463569,19.0358068 7.48599644,18.8630237 7.925,18.863 L7.925,18.863 Z" id="Shape"></path>
                    <path d="M11.965,17.249 C9.033,17.249 6.648,14.895 6.648,12 C6.648,9.105 9.033,6.751 11.965,6.751 C14.897,6.751 17.282,9.105 17.282,12 C17.282,14.895 14.897,17.249 11.965,17.249 L11.965,17.249 Z M11.965,8.251 C9.86,8.251 8.147,9.933 8.147,12 C8.147,14.067 9.859,15.749 11.964,15.749 C14.069,15.749 15.781,14.067 15.781,12 C15.781,9.933 14.07,8.251 11.965,8.251 L11.965,8.251 Z" id="Shape"></path>
                </g>
            </g>
        </g>
    </g>
</svg>