<?xml version="1.0" encoding="UTF-8"?>
<svg width="17px" height="16px" viewBox="0 0 17 16" version="1.1" xmlns="http://www.w3.org/2000/svg" xmlns:xlink="http://www.w3.org/1999/xlink">
    <!-- Generator: Sketch 43.2 (39069) - http://www.bohemiancoding.com/sketch -->
    <title>Fill 2</title>
    <desc>Created with Sketch.</desc>
    <defs></defs>
    <g id="Mobile-Scratch-2" stroke="none" stroke-width="1" fill="none" fill-rule="evenodd">
        <g id="Order-Status---Part-Complete" transform="translate(-221.000000, -593.000000)" fill="#000000">
            <g id="Page-1" transform="translate(221.000000, 592.000000)">
                <path d="M17.0099996,6.47999982 L14.3099996,2.87999982 C14.2406999,2.78729989 14.1380996,2.72519988 14.0237997,2.70629976 L8.62379979,1.80629976 C8.57519988,1.7981998 8.52480011,1.7981998 8.4762002,1.80629976 L3.0762002,2.70629976 C2.96190011,2.72519967 2.85930025,2.78729968 2.79000013,2.87999982 L0.0900001287,6.47999982 C-0.0386998772,6.65189981 -0.0278998688,6.89129962 0.115200126,7.05059967 L8.21520022,16.0505996 C8.30070047,16.1450992 8.42219982,16.2 8.55,16.2 C8.67780017,16.2 8.79930038,16.1460004 8.88479977,16.0505996 L16.9847997,7.05059967 C17.1287995,6.89039969 17.1396005,6.65189981 17.0099996,6.47999982 Z M11.5074002,6.3 L8.55,14.4332988 L5.59259977,6.29999914 L11.5073993,6.29999914 L11.5074002,6.3 Z M6.03629979,5.4 L8.55,2.88630001 L11.0637002,5.4 L6.03630023,5.4 L6.03629979,5.4 Z M9.86129973,2.925 L13.1894997,3.47939994 L12.0797999,5.14350014 L9.86039937,2.92500021 L9.86129973,2.925 Z M5.02020005,5.14350013 L3.91050023,3.47940015 L7.2387002,2.92500021 L5.02020005,5.14350013 Z M4.20300006,5.54040012 L1.51649995,6.07770022 L3.12839985,3.92850022 L4.20300006,5.54040012 Z M4.65930004,6.36749982 L7.33590002,13.7285997 L1.3131001,7.03619985 L4.65930004,6.36659989 L4.65930004,6.36749982 Z M12.4406999,6.36749982 L15.7869003,7.03709978 L9.76410081,13.7294992 L12.4407008,6.36839932 L12.4406999,6.36749982 Z M12.8969999,5.54040012 L13.9716001,3.92850022 L15.5835004,6.07770022 L12.8969999,5.54040012 Z" id="Fill-2"></path>
            </g>
        </g>
    </g>
</svg>