<?xml version="1.0" encoding="UTF-8"?>
<svg width="19px" height="19px" viewBox="0 0 19 19" version="1.1" xmlns="http://www.w3.org/2000/svg" xmlns:xlink="http://www.w3.org/1999/xlink">
    <!-- Generator: Sketch 43.2 (39069) - http://www.bohemiancoding.com/sketch -->
    <title>Fill 2</title>
    <desc>Created with Sketch.</desc>
    <defs></defs>
    <g id="Mobile-Scratch-2" stroke="none" stroke-width="1" fill="none" fill-rule="evenodd">
        <g id="Build---Extras" transform="translate(-64.000000, -359.000000)" fill="#000000">
            <g id="Group-3" transform="translate(43.000000, 338.000000)">
                <g id="Page-1-Copy-4" transform="translate(21.000000, 21.000000)">
                    <path d="M9.5,19 C6.96199989,19 4.57700014,18.0119991 2.78200006,16.2180004 C0.986999988,14.4240016 0,12.0380001 0,9.5010004 C0,6.96300029 0.988000035,4.57800054 2.78200006,2.78300046 C4.57600021,0.98800039 6.96199989,4.70000032e-07 9.5,4.70000032e-07 C12.0380001,4.70000032e-07 14.4230003,0.98800051 16.2180004,2.78300046 C18.0130004,4.57800054 19,6.96300029 19,9.5010004 C19,12.0390005 18.0119991,14.4239997 16.2180004,16.2180004 C14.4240007,18.012001 12.0380001,19 9.5,19 Z M9.5,1 C4.81299972,1 1,4.81299972 1,9.5 C1,14.1870002 4.81299972,18 9.5,18 C14.1870002,18 18,14.1870002 18,9.5 C18,4.81299972 14.1870002,1 9.5,1 Z" id="Fill-2"></path>
                </g>
            </g>
        </g>
    </g>
</svg>