<?xml version="1.0" encoding="UTF-8"?>
<svg width="49px" height="56px" viewBox="0 0 49 56" version="1.1" xmlns="http://www.w3.org/2000/svg" xmlns:xlink="http://www.w3.org/1999/xlink">
    <!-- Generator: Sketch 43.2 (39069) - http://www.bohemiancoding.com/sketch -->
    <title>Page 1</title>
    <desc>Created with Sketch.</desc>
    <defs></defs>
    <g id="VDA-Desktop-Scratch-1" stroke="none" stroke-width="1" fill="none" fill-rule="evenodd">
        <g id="VDA_1" transform="translate(-121.000000, -26.000000)">
            <g id="Page-1" transform="translate(122.000000, 26.000000)">
                <g id="Group-29" transform="translate(0.000000, 8.810764)">
                    <path d="M2.94768127,22.629694 C2.94768127,11.2445074 12.1457301,2.01508428 23.4920757,2.01508428 C34.8384834,2.01508428 44.0365322,11.2445074 44.0365322,22.629694 C44.0365322,34.0148184 34.8384834,43.2443037 23.4920757,43.2443037 C12.1457301,43.2443037 2.94768127,34.0148184 2.94768127,22.629694 Z" id="Stroke-1" stroke="#FEFEFE" stroke-width="0.871040724"></path>
                    <path d="M30.5519904,0.0742624434 C40.3655656,3.16340837 47.3368189,12.5163948 46.985683,23.3350317 C46.563365,36.3468247 35.7087212,46.5513778 22.7413096,46.1276165 C9.77383602,45.703793 -0.395959499,34.8121131 0.0264204485,21.8003201 C0.361620976,11.4741946 7.26702467,2.91603281 16.5844956,0.0349411765" id="Stroke-3" stroke="#D7D7D7" stroke-width="1.1199095" stroke-dasharray="1.244343891402715,0.497737556561086"></path>
                    <path d="M23.4920757,27.6205894 L25.8561509,30.8262059 L29.4784372,39.2792206 L26.7643422,40.117224 C24.599738,40.5024106 22.3844135,40.5024106 20.2198092,40.117224 L17.5057142,39.2792206 L21.02749,30.9007421 L23.4920757,27.6205894 Z" id="Stroke-5" stroke="#FEFEFE" stroke-width="0.871040724"></path>
                    <path d="M28.7802392,24.017884 L32.5491679,22.7524485 L41.6803751,21.9077257 L41.6359793,24.7567755 C41.3322154,26.9415322 40.6476152,29.0556103 39.6136152,31.0023241 L37.9805822,33.3334779 L31.127573,27.383461 L28.7802392,24.017884 Z" id="Stroke-7" stroke="#FEFEFE" stroke-width="0.871040724"></path>
                    <path d="M26.6218603,18.329142 L26.5870753,14.3413931 L28.6081993,5.36637613 L31.294826,6.28918156 C33.2717402,7.25423247 35.0639408,8.56079355 36.5895186,10.1490741 L38.2943537,12.4278411 L30.5371835,17.1290345 L26.6218603,18.329142 Z" id="Stroke-9" stroke="#FEFEFE" stroke-width="0.871040724"></path>
                    <path d="M20.3116453,18.353724 L16.5212627,17.1546742 L8.63915185,12.4524231 L10.3439869,10.1736561 C11.8695648,8.58537557 13.6617653,7.27881448 15.6386175,6.31376357 L18.3253062,5.39095814 L20.3840674,14.2464559 L20.3116453,18.353724 Z" id="Stroke-11" stroke="#FEFEFE" stroke-width="0.871040724"></path>
                    <path d="M18.4085855,24.017884 L16.1007491,27.2645639 L9.20824248,33.3334779 L7.5752095,31.0023241 C6.5412095,29.0556103 5.85667124,26.9415322 5.55284538,24.7567755 L5.5084496,21.9077257 L14.5380301,22.67953 L18.4085855,24.017884 Z" id="Stroke-13" stroke="#FEFEFE" stroke-width="0.871040724"></path>
                    <path d="M25.0508078,22.629694 C25.0508078,23.4934553 24.3529384,24.1937098 23.4920571,24.1937098 C22.6312379,24.1937098 21.9333685,23.4934553 21.9333685,22.629694 C21.9333685,21.7658705 22.6312379,21.065616 23.4920571,21.065616 C24.3529384,21.065616 25.0508078,21.7658705 25.0508078,22.629694 Z" id="Stroke-15" stroke="#D7D7D7" stroke-width="0.5"></path>
                    <path d="M22.3493681,12.8845962 L24.4578575,12.8845962 L25.6964129,4.71765611 L24.839066,4.62557466 C23.9436478,4.52938688 23.0405409,4.52938688 22.1451227,4.62557466 L21.2877137,4.71765611 L22.3493681,12.8845962 Z" id="Stroke-17" stroke="#D7D7D7" stroke-width="0.871040724"></path>
                    <path d="M14.2139285,20.6545407 L14.8654799,18.6423744 L7.50743773,14.9366561 L7.15524776,15.7264412 C6.78743245,16.5511923 6.5083467,17.4130249 6.32276491,18.2972557 L6.14511979,19.1439072 L14.2139285,20.6545407 Z" id="Stroke-19" stroke="#D7D7D7" stroke-width="0.871040724"></path>
                    <path d="M18.9066863,30.5593812 L17.2008591,29.3157839 L11.4147747,35.192509 L12.0544831,35.7726844 C12.72259,36.3785554 13.4531982,36.9111968 14.2339066,37.3615249 L14.9815042,37.79269 L18.9066863,30.5593812 Z" id="Stroke-21" stroke="#D7D7D7" stroke-width="0.871040724"></path>
                    <path d="M30.0002364,29.4411391 L28.2944092,30.6847364 L32.0764211,38.0224457 L32.8240187,37.5912183 C33.6047272,37.1408903 34.3353354,36.6082489 35.0034422,36.0023778 L35.6431507,35.4222025 L30.0002364,29.4411391 Z" id="Stroke-23" stroke="#D7D7D7" stroke-width="0.871040724"></path>
                    <path d="M32.2992743,18.464819 L32.9508257,20.4769853 L41.0743231,19.1352093 L40.896678,18.2885577 C40.7110962,17.4043891 40.4320724,16.5425566 40.0641951,15.7177432 L39.7120051,14.9279581 L32.2992743,18.464819 Z" id="Stroke-25" stroke="#D7D7D7" stroke-width="0.871040724"></path>
                    <path d="M26.401723,22.629694 C26.401723,24.2421148 25.0990541,25.5492359 23.4920633,25.5492359 C21.8851346,25.5492359 20.5824657,24.2421148 20.5824657,22.629694 C20.5824657,21.017211 21.8851346,19.7100899 23.4920633,19.7100899 C25.0990541,19.7100899 26.401723,21.017211 26.401723,22.629694 Z" id="Stroke-27" stroke="#D7D7D7" stroke-width="0.5"></path>
                </g>
                <path d="M33.7067197,10.1701097 C41.5644004,13.9830283 46.9841577,22.058198 46.9841577,31.4035317 C46.9841577,44.4222308 36.4663885,54.9759468 23.4920943,54.9759468 C10.5178001,54.9759468 3.10026385e-05,44.4222308 3.10026385e-05,31.4035317 C3.10026385e-05,22.0611222 5.41637797,13.9881301 13.2700904,10.1737183" id="Stroke-30" stroke="#D7D7D7" stroke-width="1.1199095" stroke-dasharray="1.244343891402715,0.497737556561086"></path>
                <polygon id="Fill-32" fill="#D6D6D6" points="18.4194736 8.58597285 28.564715 8.58597285 28.564715 7.46606335 18.4194736 7.46606335"></polygon>
                <polygon id="Fill-33" fill="#FEFEFE" points="25.8095044 4.97738801 23.4920571 1.24434389e-05 21.1746719 4.97738801 17.1792999 1.24434389e-05 18.4194674 6.71946946 28.5647088 6.71946946 29.8048144 1.24434389e-05"></polygon>
            </g>
        </g>
    </g>
</svg>